<?xml version="1.0" standalone="no"?>
<!DOCTYPE svg PUBLIC "-//W3C//DTD SVG 1.1//EN" "http://www.w3.org/Graphics/SVG/1.1/DTD/svg11.dtd">
<svg xmlns="http://www.w3.org/2000/svg">
<metadata>Copyright (C) 2023 by original authors @ fontello.com</metadata>
<defs>
<font id="fontello" horiz-adv-x="1000" >
<font-face font-family="fontello" font-weight="400" font-stretch="normal" units-per-em="1000" ascent="850" descent="-150" />
<missing-glyph horiz-adv-x="1000" />
<glyph glyph-name="food-1" unicode="&#xe800;" d="M0 116q0 33 23 55t55 23l84 0q22 121 117 201t221 80q102 0 186-55t126-144l143 70q12 6 24 2t17-16 2-23-16-18l-150-76q4-11 6-21l84 0q33 0 56-23t22-55q0-24-16-41l-109-123 0-24q0-33-22-56t-56-22l-594 0q-33 0-55 22t-23 56l0 24-109 123q-16 17-16 41z m63 0l125-141 0-47q0-16 15-16l594 0q15 0 15 16l0 47 125 141q0 15-15 15l-844 0q-15 0-15-15z m130 78l34 0q21 95 97 157t176 62q84 0 153-46t103-120l27 15q-37 82-113 132t-170 50q-111 0-198-72t-109-178z m55 291q-16 39 16 113 25 61 13 90l-2 0 0 6q0 15 16 15 10 0 14-9 17-41-14-114-25-62-12-91l0-4q0-16-15-16-10 0-14 8l0 2-2 0z m10-291l33 0q20 68 77 112t132 44q66 0 120-36t79-95l30 14q-32 66-93 107t-136 41q-86 0-153-52t-89-135z m66 0l33 0q18 43 57 68t86 26 86-26 57-68l5 0 24 11q-22 51-68 83t-104 31q-61 0-108-35t-68-90z m69 0l37 0q29 31 70 31t68-31l39 0q-37 62-107 62t-107-62z m76 429l0 2q-16 39 13 114 28 60 14 90l0 5q0 16 14 16 12 0 15-10 18-41-13-113-26-63-14-92 2-2 2-4 0-15-16-15-9 0-15 7z m160-134l0 2q-16 39 16 111 25 62 11 90l0 6q0 15 16 15 10 0 14-9 17-40-14-114-26-60-14-90l0-2q2-2 2-3 0-16-15-16-10 0-14 10l-2 0z m160-295l18 0q0 2-1 4t-1 4z" horiz-adv-x="1000" />

<glyph glyph-name="thumbs-up" unicode="&#xe802;" d="M143 100q0 15-11 25t-25 11-25-11-11-25 11-25 25-11 25 11 11 25z m643 321q0 29-22 50t-50 22h-196q0 32 27 89t26 89q0 55-17 81t-72 27q-14-15-21-48t-17-70-33-61q-13-13-43-51-2-3-13-16t-18-23-19-24-22-25-22-19-22-15-20-6h-18v-357h18q7 0 18-1t18-4 21-6 20-7 20-6 16-6q118-41 191-41h67q107 0 107 93 0 15-2 31 16 9 26 30t10 41-10 38q29 28 29 67 0 14-5 31t-14 26q18 1 30 26t12 45z m71 1q0-50-27-91 5-18 5-38 0-43-21-81 1-12 1-24 0-56-33-99 0-78-48-123t-126-45h-72q-54 0-106 13t-121 36q-65 23-77 23h-161q-29 0-50 21t-21 50v357q0 30 21 51t50 21h153q20 13 77 86 32 42 60 72 13 14 19 48t17 70 35 60q22 21 50 21 47 0 84-18t57-57 20-104q0-51-27-107h98q58 0 101-42t42-100z" horiz-adv-x="857.1" />

<glyph glyph-name="add-circle" unicode="&#xe806;" d="M500 767c-230 0-417-187-417-417 0-230 187-417 417-417 230 0 417 187 417 417 0 230-187 417-417 417z m167-448h-136v-136c0-17-14-31-31-31-17 0-31 14-31 31v136h-136c-17 0-31 14-31 31 0 17 14 31 31 31h136v136c0 17 14 31 31 31 17 0 31-14 31-31v-136h136c17 0 31-14 31-31 0-17-14-31-31-31z" horiz-adv-x="1000" />

<glyph glyph-name="add" unicode="&#xe80c;" d="M675 767h-350c-151 0-242-91-242-242v-349c0-152 91-243 242-243h349c152 0 242 91 242 242v350c1 151-90 242-241 242z m75-448h-219v-219c0-17-14-31-31-31-17 0-31 14-31 31v219h-219c-17 0-31 14-31 31 0 17 14 31 31 31h219v219c0 17 14 31 31 31 17 0 31-14 31-31v-219h219c17 0 31-14 31-31 0-17-14-31-31-31z" horiz-adv-x="1000" />

<glyph glyph-name="add-square-1" unicode="&#xe810;" d="M675 767h-350c-151 0-242-91-242-242v-349c0-152 91-243 242-243h349c152 0 242 91 242 242v350c1 151-90 242-241 242z m-8-448h-136v-136c0-17-14-31-31-31-17 0-31 14-31 31v136h-136c-17 0-31 14-31 31 0 17 14 31 31 31h136v136c0 17 14 31 31 31 17 0 31-14 31-31v-136h136c17 0 31-14 31-31 0-17-14-31-31-31z" horiz-adv-x="1000" />

<glyph glyph-name="arrow-circle-down" unicode="&#xe826;" d="M500 767c-230 0-417-187-417-417 0-230 187-417 417-417 230 0 417 187 417 417 0 230-187 417-417 417z m169-387l-147-147c-6-6-14-9-22-9-8 0-16 3-22 9l-147 147c-12 13-12 33 0 45 12 12 32 12 44 0l125-125 125 125c12 12 32 12 44 0 12-12 12-32 0-45z" horiz-adv-x="1000" />

<glyph glyph-name="arrow-circle-left" unicode="&#xe827;" d="M500 767c-230 0-417-187-417-417 0-230 187-417 417-417 230 0 417 187 417 417 0 230-187 417-417 417z m75-542c12-12 12-32 0-44-7-6-15-9-22-9-8 0-16 3-23 9l-147 147c-12 12-12 32 0 44l147 147c13 12 33 12 45 0 12-12 12-32 0-44l-125-125 125-125z" horiz-adv-x="1000" />

<glyph glyph-name="arrow-circle-right" unicode="&#xe828;" d="M500 767c-230 0-417-187-417-417 0-230 187-417 417-417 230 0 417 187 417 417 0 230-187 417-417 417z m116-439l-147-147c-6-6-14-9-22-9-8 0-16 3-22 9-12 12-12 32 0 44l125 125-125 125c-12 12-12 32 0 44 12 12 32 12 44 0l147-147c13-12 13-32 0-44z" horiz-adv-x="1000" />

<glyph glyph-name="arrow-circle-up" unicode="&#xe829;" d="M500 767c-230 0-417-187-417-417 0-230 187-417 417-417 230 0 417 187 417 417 0 230-187 417-417 417z m169-492c-6-6-14-9-22-9-8 0-16 3-22 9l-125 125-125-125c-12-12-32-12-44 0-12 13-12 33 0 45l147 147c12 12 32 12 44 0l147-147c12-13 12-32 0-45z" horiz-adv-x="1000" />

<glyph glyph-name="arrow-left-1" unicode="&#xe82d;" d="M675 767h-350c-151 0-242-91-242-242v-349c0-152 91-243 242-243h349c152 0 242 91 242 242v350c1 151-90 242-241 242z m75-448h-425l126-126c12-12 12-32 0-44-6-6-14-9-22-9-8 0-16 3-22 9l-179 179c-6 6-9 14-9 22 0 8 3 16 9 22l179 179c12 12 32 12 44 0 12-12 12-32 0-44l-126-126h425c17 0 31-14 31-31 0-17-14-31-31-31z" horiz-adv-x="1000" />

<glyph glyph-name="restaurant" unicode="&#xe832;" d="M50 800c-25 0-50-25-50-50l0-250c0-50 50-50 50-100l0-450c0-25 25-50 50-50l50 0c25 0 50 25 50 50l0 450c0 50 50 50 50 100l0 250c0 25-25 50-50 50-12 0-12-15-12-25l0-200c0-10 0-25-13-25s-12 15-12 25l0 200c0 10 0 25-13 25l-50 0c-12 0-12-15-12-25l0-200c0-10 0-25-13-25s-12 15-12 25l0 200c0 10 0 25-13 25z m500 0c-50 0-143-12-175-75-25-50-25-175-25-225l0-200c0-25 25-50 50-50l0-300c0-25 25-50 50-50l50 0c25 0 50 25 50 50z" horiz-adv-x="550" />

<glyph glyph-name="arrow-right-1" unicode="&#xe833;" d="M675 767h-350c-151 0-242-91-242-242v-349c0-152 91-243 242-243h349c152 0 242 91 242 242v350c1 151-90 242-241 242z m97-439l-179-179c-6-6-14-9-22-9-8 0-16 3-22 9-12 12-12 32 0 44l126 126h-425c-17 0-31 14-31 31 0 17 14 31 31 31h425l-126 126c-12 12-12 32 0 44 12 12 32 12 44 0l179-179c6-6 9-14 9-22 0-8-3-16-9-22z" horiz-adv-x="1000" />

<glyph glyph-name="arrow-right" unicode="&#xe834;" d="M500 767c-230 0-417-187-417-417 0-230 187-417 417-417 230 0 417 187 417 417 0 230-187 417-417 417z m168-439l-125-125c-6-6-14-9-22-9-8 0-16 3-22 9-12 12-12 32 0 44l71 72h-216c-17 0-31 14-31 31 0 17 14 31 31 31h216l-71 72c-12 12-12 32 0 44 12 12 32 12 44 0l125-125c12-12 12-32 0-44z" horiz-adv-x="1000" />

<glyph glyph-name="arrow-square-down" unicode="&#xe835;" d="M675 767h-350c-151 0-242-91-242-242v-349c0-152 91-243 242-243h349c152 0 242 91 242 242v350c1 151-90 242-241 242z m-6-382l-147-147c-6-7-14-10-22-10-8 0-16 3-22 10l-147 147c-12 12-12 32 0 44 12 12 32 12 44 0l125-125 125 125c12 12 32 12 44 0 12-12 12-32 0-44z" horiz-adv-x="1000" />

<glyph glyph-name="arrow-square-left" unicode="&#xe836;" d="M675 767h-350c-151 0-242-91-242-242v-349c0-152 91-243 242-243h349c152 0 242 91 242 242v350c1 151-90 242-241 242z m-100-542c12-12 12-32 0-44-7-6-15-9-22-9-8 0-16 3-23 9l-147 147c-12 12-12 32 0 44l147 147c13 12 33 12 45 0 12-12 12-32 0-44l-125-125 125-125z" horiz-adv-x="1000" />

<glyph glyph-name="arrow-square-right" unicode="&#xe837;" d="M675 767h-350c-151 0-242-91-242-242v-349c0-152 91-243 242-243h349c152 0 242 91 242 242v350c1 151-90 242-241 242z m-59-439l-147-147c-6-6-14-9-22-9-8 0-16 3-22 9-12 12-12 32 0 44l125 125-125 125c-12 12-12 32 0 44 12 12 32 12 44 0l147-147c13-12 13-32 0-44z" horiz-adv-x="1000" />

<glyph glyph-name="arrow-square-up" unicode="&#xe838;" d="M675 767h-350c-151 0-242-91-242-242v-349c0-152 91-243 242-243h349c152 0 242 91 242 242v350c1 151-90 242-241 242z m-6-500c-6-7-14-9-22-9-8 0-16 3-22 9l-125 125-125-125c-12-12-32-12-44 0-12 12-12 32 0 44l147 147c12 12 32 12 44 0l147-147c12-12 12-32 0-44z" horiz-adv-x="1000" />

<glyph glyph-name="arrow-swap-horizontal" unicode="&#xe83a;" d="M675 767h-350c-151 0-242-91-242-242v-349c0-152 91-243 242-243h349c152 0 242 91 242 242v350c1 151-90 242-241 242z m62-502c-2-4-4-7-7-10l-122-123c-7-7-15-9-23-9-7 0-15 2-22 9-12 12-12 32 0 44l70 69h-341c-17 0-32 15-32 32 0 17 15 31 32 31h416c5 0 8-1 12-3 8-3 14-9 18-17 2-7 2-15-1-23z m-29 127h-416c-4 0-8 1-12 3-8 3-14 9-17 17-4 7-4 16 0 23 2 4 4 8 7 10l123 123c12 12 32 12 44 0 12-12 12-32 0-44l-70-69h341c17 0 32-15 32-32 0-17-15-31-32-31z" horiz-adv-x="1000" />

<glyph glyph-name="book-1" unicode="&#xe868;" d="M917 648v-495c0-41-33-78-74-83l-13-2c-68-9-164-37-242-70-27-11-57 10-57 39v580c0 15 9 29 23 37 76 41 191 78 270 84h2c50 0 91-40 91-90z m-471 6c-76 41-191 78-270 84h-3c-50 0-90-40-90-90v-495c0-41 33-78 73-83l13-2c68-9 165-37 242-70 27-11 57 10 57 39v580c0 16-8 29-22 37z m-238-126h94c17 0 31-15 31-32 0-17-14-31-31-31h-94c-17 0-31 14-31 31 0 17 14 32 31 32z m125-188h-125c-17 0-31 14-31 31 0 17 14 32 31 32h125c17 0 32-15 32-32 0-17-15-31-32-31z" horiz-adv-x="1000" />

<glyph glyph-name="book-square" unicode="&#xe86a;" d="M675 767h-350c-151 0-242-91-242-242v-349c0-152 91-243 242-243h349c152 0 242 91 242 242v350c1 151-90 242-241 242z m-196-636c0-15-15-25-29-19-50 22-116 42-162 48l-8 0c-25 4-46 28-46 53v321c0 32 26 56 58 54 52-5 129-30 177-57 7-4 10-11 10-18v-382z m287 83c0-26-21-50-46-53l-9-1c-46-6-111-26-161-47-14-6-29 4-29 19v381c0 8 4 15 10 19 49 27 124 51 175 56h2c32 0 58-26 58-58v-316z" horiz-adv-x="1000" />

<glyph glyph-name="call-calling" unicode="&#xe898;" d="M734 402c-18 0-32 15-32 32 0 16-15 48-41 76-26 27-53 42-77 42-18 0-32 15-32 33 0 17 15 32 32 32 42 0 86-23 124-63 36-38 59-85 59-119 0-18-15-33-33-33z m151 0c-18 0-32 15-32 32 0 148-121 268-268 268-18 0-32 15-32 32 0 18 14 33 31 33 184 0 333-149 333-333 0-17-15-32-32-32z m-425-175l-77-77c-16-16-42-16-58 0-5 4-10 8-14 13-43 43-82 89-116 136-35 48-62 95-82 142-20 48-30 93-30 137 0 28 5 55 15 80 10 25 26 49 48 70 27 26 56 39 87 39 12 0 23-3 34-8 11-5 20-12 28-23l96-136c8-11 13-20 17-30 4-8 6-17 6-25 0-10-3-20-9-30-5-9-13-19-23-29l-32-33c-5-5-7-10-7-17 0-3 1-6 2-9 1-4 2-6 3-9 7-13 20-31 39-53 18-22 38-44 60-66 4-4 9-8 13-12 17-17 17-43 0-60z m455-141c0-11-2-23-6-35-1-3-2-7-4-10-7-15-16-29-28-43-21-22-43-38-69-49 0 0 0 0-1 0-24-10-51-16-80-16-42 0-88 10-136 31-48 20-96 48-143 82-16 12-33 25-48 37l136 137c12-9 22-16 31-20 2-1 5-2 8-4 3-1 6-1 10-1 7 0 13 2 17 7l32 31c10 10 20 18 30 23 9 6 19 9 29 9 8 0 17-2 26-5 9-4 19-9 29-17l138-97c11-8 18-17 23-27 4-11 6-21 6-33z" horiz-adv-x="1000" />

<glyph glyph-name="camera-slash" unicode="&#xe8a0;" d="M907 757c-12 13-33 13-45 0l-769-769c-13-13-13-33 0-46 6-5 14-9 22-9 9 0 17 4 23 10l769 769c13 13 13 33 0 45z m-217-120l-30 61c-20 37-70 69-112 69h-95c-43 0-93-32-113-69l-30-61c-11-22-35-37-60-37-90 0-162-76-156-166l21-344c3-36 11-69 30-95l605 605c-25 0-49 15-60 37z m-294-235h-125c-17 0-31 14-31 31 0 17 14 32 31 32h125c17 0 31-15 31-32 0-17-14-31-31-31z m510 32l-21-344c-6-86-52-157-167-157h-409c-37 0-56 45-30 72l103 103c13 13 33 14 49 5 29-16 64-22 100-15 53 12 96 55 107 108 7 36 0 70-15 98-10 16-8 37 5 49l187 188c18 17 46 15 61-5 22-28 33-64 30-102z" horiz-adv-x="1000" />

<glyph glyph-name="camera" unicode="&#xe8a1;" d="M750 600c-25 0-49 15-60 37l-30 61c-20 37-70 69-112 69h-95c-43 0-93-32-113-69l-30-61c-11-22-35-37-60-37-90 0-162-76-156-166l21-344c5-86 52-157 167-157h436c115 0 161 71 167 157l21 344c6 90-66 166-156 166z m-312-52h125c17 0 31-14 31-31 0-17-14-32-31-32h-125c-18 0-32 15-32 32 0 17 14 31 32 31z m62-453c-77 0-141 63-141 141 0 78 63 141 141 141 78 0 141-63 141-141 0-78-63-141-141-141z" horiz-adv-x="1000" />

<glyph glyph-name="chart-3" unicode="&#xe8b7;" d="M917-67h-834c-17 0-31 14-31 32 0 17 14 31 31 31h834c17 0 31-14 31-31 0-18-14-32-31-32z m-511 750v-750h188v750c0 46-19 84-75 84h-38c-56 0-75-38-75-84z m-281-250v-500h167v500c0 46-17 84-67 84h-33c-50 0-67-38-67-84z m583-208v-292h167v292c0 46-17 83-67 83h-33c-50 0-67-37-67-83z" horiz-adv-x="1000" />

<glyph glyph-name="clock-1" unicode="&#xe8c6;" d="M500 767c-230 0-417-187-417-417 0-230 187-417 417-417 230 0 417 187 417 417 0 230-187 417-417 417z m181-566c-6-10-16-15-27-15-5 0-11 1-16 4l-129 78c-32 19-56 61-56 98v171c0 17 15 31 32 31 17 0 31-14 31-31v-171c0-15 12-37 25-45l129-77c15-9 20-28 11-43z" horiz-adv-x="1000" />

<glyph glyph-name="edit-3" unicode="&#xe928;" d="M875-67h-750c-17 0-31 14-31 32 0 17 14 31 31 31h750c17 0 31-14 31-31 0-18-14-32-31-32z m-82 772c-81 81-160 83-243 0l-51-50c-4-5-6-11-4-17 32-111 120-199 230-231 2 0 4 0 5 0 5 0 9 1 13 5l50 50c41 41 61 80 61 120 0 42-20 82-61 123z m-143-335c-12 5-23 11-35 18-9 5-17 11-26 17-7 5-16 12-24 18 0 1-3 3-7 7-13 11-29 26-43 43-1 1-3 4-6 7-4 5-11 14-17 23-5 7-11 16-17 25-6 11-12 22-18 34-1 2-2 4-2 6-7 14-25 18-35 7l-239-239c-6-5-11-16-12-23l-22-159c-4-29 3-55 21-73 15-15 36-23 58-23 5 0 10 1 15 2l160 22c8 1 18 6 23 12l239 238c10 11 6 30-8 36-1 0-3 1-5 2z" horiz-adv-x="1000" />

<glyph glyph-name="element-4" unicode="&#xe92d;" d="M896 396v283c0 63-27 88-93 88h-168c-67 0-93-25-93-88v-283c0-63 26-88 93-88h168c66 0 93 25 93 88z m-438-92v-283c0-63-26-88-93-88h-168c-66 0-93 25-93 88v283c0 63 27 88 93 88h168c67 0 93-25 93-88z m438-283v117c0 62-27 87-93 87h-168c-67 0-93-25-93-87v-117c0-63 26-88 93-88h168c66 0 93 25 93 88z m-438 542v116c0 63-26 88-93 88h-168c-66 0-93-25-93-88v-116c0-63 27-88 93-88h168c67 0 93 25 93 88z" horiz-adv-x="1000" />

<glyph glyph-name="eye-1" unicode="&#xe941;" d="M885 469c-96 151-237 238-385 238-74 0-146-22-212-62-66-41-125-100-173-176-42-66-42-172 0-237 96-152 237-239 385-239 74 0 146 22 212 62 66 41 125 101 173 177 42 65 42 171 0 237z m-385-287c-93 0-168 75-168 168 0 93 75 168 168 168 93 0 168-75 168-168 0-93-75-168-168-168z m0 287c-65 0-119-53-119-119 0-65 54-119 119-119 65 0 119 54 119 119 0 65-54 119-119 119z" horiz-adv-x="1000" />

<glyph glyph-name="frame" unicode="&#xe96c;" d="M500 767c-109 0-198-89-198-198 0-107 84-194 193-198 3 1 7 1 9 0 1 0 1 0 2 0 1 0 1 0 1 0 107 4 191 91 191 198 0 109-89 198-198 198z m212-506c-116 77-306 77-423 0-53-36-82-84-82-135 0-51 29-99 81-134 59-39 135-59 212-59 77 0 153 20 212 59 52 36 81 83 81 135 0 51-29 99-81 134z" horiz-adv-x="1000" />

<glyph glyph-name="glass-1" unicode="&#xe97e;" d="M660-67h-320c-175 0-209 106-152 234l60 136c0 0 127 5 252-36 125-42 243 37 243 37l8 5 62-142c56-129 19-234-153-234z m-17 636h-6l88-202-17-11c0-1-95-61-188-30-98 33-197 39-245 39l89 204h-12c-27 0-52 11-70 29-18 18-29 43-29 70 0 54 44 99 99 99h296c27 0 52-12 70-29 23-24 35-58 26-94-11-45-54-75-101-75z" horiz-adv-x="1000" />

<glyph glyph-name="grid-3" unicode="&#xe989;" d="M675 767h-144v-250-32-208h386v208 32 8c0 151-91 242-242 242z m-592-344v-208-21-19c0-151 91-242 242-242h144v261 21 208h-386z m386 344v-282h-386v40c0 151 91 242 242 242h144z m448-552v-40c0-151-91-242-242-242h-144v282h386z" horiz-adv-x="1000" />

<glyph glyph-name="heart-remove" unicode="&#xe99e;" d="M862 270c0 0 0 1 0 1v0c-37 38-88 62-145 62-111 0-200-89-200-200 0-51 19-97 51-133 37-41 90-67 149-67 110 0 200 90 200 200 0 53-21 101-55 137z m-70-214c-6-6-14-10-22-10-8 0-16 4-22 10l-31 30-32-32c-6-6-14-9-22-9-4 0-8 1-11 3-4 1-8 3-11 6-12 13-12 32 0 44l32 33-30 30c-13 12-13 32 0 45 12 12 31 12 44 0l30-31 30 29c12 12 32 12 44 0 7-7 10-16 9-25-1-7-4-14-9-19l-30-29 31-31c13-12 13-32 0-44z m125 430c0-49-8-95-22-138-2-8-13-11-20-5-46 33-101 51-158 51-145 0-263-118-263-262 0-45 12-89 34-129 7-11-1-26-14-22-100 34-303 159-369 367-14 43-22 89-22 138 0 129 104 233 232 233 75 0 143-36 185-93 42 57 110 93 185 93 128 0 232-104 232-233z" horiz-adv-x="1000" />

<glyph glyph-name="heart-3" unicode="&#xe9a2;" d="M685 721c-75 0-143-37-185-93-42 56-110 93-185 93-128 0-232-104-232-233 0-50 8-96 22-138 66-208 269-333 369-367 14-5 38-5 52 0 100 34 303 159 369 367 14 42 22 88 22 138 0 129-104 233-232 233z" horiz-adv-x="1000" />

<glyph glyph-name="layer-1" unicode="&#xe9c8;" d="M807 646l-244 109c-36 16-90 16-126 0l-244-109c-62-27-71-65-71-85 0-20 9-57 71-85l244-108c18-8 41-13 63-13 23 0 45 5 63 13l244 108c62 28 71 65 71 85 0 20-9 58-71 85z m-307-506c-16 0-32 3-46 10l-281 125c-43 19-76 70-76 117 0 17 13 31 31 31 17 0 30-14 30-31 0-22 19-52 40-61l281-125c13-6 29-6 42 0l281 125c21 9 39 38 39 61 0 17 14 31 31 31 17 0 31-14 31-31 0-47-33-98-76-117l-281-125c-14-7-30-10-46-10z m0-207c-16 0-32 4-46 10l-281 125c-46 20-76 67-76 117 0 18 13 31 31 31 17 0 30-13 30-31 0-26 16-50 40-60l281-126c13-5 29-5 42 0l281 126c23 10 39 34 39 60 0 18 14 31 31 31 17 0 31-13 31-31 0-50-30-96-76-117l-281-125c-14-6-30-10-46-10z" horiz-adv-x="1000" />

<glyph glyph-name="menu-3" unicode="&#xe9f8;" d="M675 767h-350c-151 0-242-91-242-242v-349c0-152 91-243 242-243h349c152 0 242 91 242 242v350c1 151-90 242-241 242z m33-636h-416c-17 0-32 14-32 32 0 17 15 31 32 31h416c17 0 32-14 32-31 0-18-15-32-32-32z m0 188h-416c-17 0-32 14-32 31 0 17 15 31 32 31h416c17 0 32-14 32-31 0-17-15-31-32-31z m0 187h-416c-17 0-32 14-32 32 0 17 15 31 32 31h416c17 0 32-14 32-31 0-18-15-32-32-32z" horiz-adv-x="1000" />

<glyph glyph-name="menu-board-1" unicode="&#xe9f9;" d="M871 440l25-412c0-12-5-19-8-23-3-3-10-9-22-9h-114l90 444h29z m46 160l-1-1c1-10 0-20-2-31l-307-563c-10-43-48-72-91-72h350c54 0 96 46 92 100l-41 567z m-440 157c4 16-6 33-23 38-16 3-34-7-38-23l-21-87h65l17 72z m275 1c4 17-7 33-24 37-17 4-33-7-37-24l-19-86h64l16 73z m157-130c-14 33-46 57-86 57h-87l-23-108c-3-15-16-25-30-25-3 0-5 0-7 1-17 4-28 21-24 37l20 95h-212l-27-108c-3-14-16-24-30-24-3 0-5 1-8 1-16 4-27 21-22 38l22 94h-85c-40 0-77-27-89-66l-175-565c-18-60 26-122 89-122h548c43 0 80 29 90 72l141 563c2 11 3 21 2 31-1 10-3 20-7 29z m-296-476h-334c-17 0-31 14-31 31 0 17 14 32 31 32h334c17 0 31-15 31-32 0-17-14-31-31-31z m41 167h-333c-17 0-31 14-31 31 0 17 14 31 31 31h333c17 0 31-14 31-31 0-17-14-31-31-31z" horiz-adv-x="1000" />

<glyph glyph-name="menu-2" unicode="&#xe9fa;" d="M731 483c68 0 123 55 123 123 0 68-55 124-123 124-68 0-123-56-123-124 0-68 55-123 123-123z m-462 0c68 0 124 55 124 123 0 68-56 124-124 124-68 0-123-56-123-124 0-68 55-123 123-123z m462-513c68 0 123 56 123 124 0 68-55 123-123 123-68 0-123-55-123-123 0-68 55-124 123-124z m-462 0c68 0 124 56 124 124 0 68-56 123-124 123-68 0-123-55-123-123 0-68 55-124 123-124z" horiz-adv-x="1000" />

<glyph glyph-name="milk-1" unicode="&#xea16;" d="M750 183v-125c0-68-56-125-125-125h-250c-69 0-125 57-125 125v168c0 22 19 41 42 41l120 0c29 0 57-6 83-19 29-13 60-23 92-23h121c23 0 42-19 42-42z m-25 275l-88 88c-8 8-12 19-12 29v70c24 9 42 32 42 59 0 35-28 63-63 63h-208c-35 0-63-28-63-63 0-27 18-50 42-59v-70c0-10-4-21-12-29l-88-88c-14-13-25-40-25-59v-27c0-23 18-42 41-42l122-1c40 0 82-10 118-29 18-9 38-12 57-12h120c23 0 42 18 42 41v70c0 19-11 46-25 59z" horiz-adv-x="1000" />

<glyph glyph-name="send-1" unicode="&#xead1;" d="M673 727l-377-125c-253-85-253-223 0-307l112-37 37-112c84-253 223-253 307 0l125 376c56 169-36 261-204 205z m13-224l-158-160c-7-6-15-9-23-9-7 0-15 3-22 9-12 13-12 33 0 45l159 159c12 12 32 12 44 0 12-12 12-32 0-44z" horiz-adv-x="1000" />

<glyph glyph-name="setting-1" unicode="&#xead5;" d="M838 466c-76 0-107 53-69 119 21 37 9 86-29 107l-72 42c-33 19-76 8-95-25l-5-8c-38-66-99-66-137 0l-5 8c-18 33-61 44-94 25l-72-42c-38-21-51-70-29-108 38-65 7-118-68-118-44 0-80-36-80-79v-74c0-43 36-79 80-79 75 0 106-53 68-119-22-38-9-86 29-108l72-41c33-19 76-8 95 25l5 8c37 66 99 66 137 0l4-8c20-33 62-44 95-25l72 41c38 22 51 71 30 108-38 66-7 119 68 119 43 0 79 36 79 79v74c0 43-36 79-79 79z m-338-251c-75 0-135 60-135 135 0 75 60 135 135 135 75 0 135-60 135-135 0-75-60-135-135-135z" horiz-adv-x="1000" />

<glyph glyph-name="setting-3" unicode="&#xead6;" d="M675 767h-350c-151 0-242-91-242-242v-349c0-152 91-243 242-243h349c152 0 242 91 242 242v350c1 151-90 242-241 242z m-355-146c0 17 14 31 31 31 17 0 31-14 31-31v-163c0-17-14-31-31-31-17 0-31 14-31 31v163z m77-456c-9-3-15-11-15-21v-65c0-17-14-31-31-31-17 0-31 14-31 31v65c0 10-7 18-15 21-40 18-67 58-67 104 0 62 50 114 113 114 62 0 114-51 114-114 0-46-28-86-68-104z m283-86c0-17-14-31-31-31-17 0-31 14-31 31v163c0 17 14 31 31 31 17 0 31-14 31-31v-163z m-31 239c-62 0-114 51-114 114 0 46 28 85 68 103 9 4 15 12 15 21v65c0 17 14 31 31 31 17 0 31-14 31-31v-65c0-10 7-18 15-21 40-18 68-58 68-104 0-62-51-113-114-113z" horiz-adv-x="1000" />

<glyph glyph-name="setting-6" unicode="&#xead7;" d="M888 534h-233c-16 0-29 13-29 29 0 17 13 30 29 30h233c16 0 29-13 29-30 0-16-13-29-29-29z m-620 0h-155c-17 0-30 13-30 29 0 17 13 30 30 30h155c16 0 29-13 29-30 0-16-14-29-29-29z m155-135c90 0 164 73 164 164 0 91-74 165-164 165-91 0-165-74-165-165 0-91 74-164 165-164z m465-291h-155c-17 0-30 13-30 29 0 16 13 29 30 29h155c16 0 29-13 29-29 0-16-13-29-29-29z m-543 0h-232c-17 0-30 13-30 29 0 16 13 29 30 29h232c16 0 29-13 29-29 0-16-13-29-29-29z m233-136c90 0 164 74 164 165 0 91-74 164-164 164-91 0-165-73-165-164 0-91 74-165 165-165z" horiz-adv-x="1000" />

<glyph glyph-name="smallcaps" unicode="&#xeaf9;" d="M873 678c-12 17-28 33-45 45-40 29-91 44-153 44h-350c-8 0-16-1-24-2-137-8-218-97-218-240v-350c0-62 15-113 44-153 12-17 28-33 45-45 34-25 78-40 129-43 8 0 16-1 24-1h350c151 0 242 91 242 242v350c0 62-15 113-44 153z m-398-490h-120c-17 0-31 15-31 32 0 17 14 31 31 31h42v269h-107c-5 0-9-3-9-8v-32c0-17-14-31-31-31-17 0-31 14-31 31v33c0 39 31 70 71 70h276c39 0 71-31 71-70v-33c0-17-14-31-31-31-17 0-31 14-31 31v33c0 4-4 8-9 8h-107v-270h16c17 0 31-14 31-31 0-17-14-32-31-32z m306 152c0-17-14-31-31-31-17 0-31 14-31 31v14h-65v-175h15c17 0 31-14 31-31 0-17-14-31-31-31h-92c-17 0-31 14-31 31 0 17 14 31 31 31h15v175h-20c-17 0-32 14-32 31 0 18 15 32 32 32h150c33 0 59-27 59-60v-17z" horiz-adv-x="1000" />

<glyph glyph-name="tag-cross" unicode="&#xeb18;" d="M708 694h-280c-58 0-114-25-154-69l-147-161c-59-65-59-163 0-228l147-161c40-44 96-69 154-69h280c115 0 209 94 209 209v270c0 115-94 209-209 209z m-19-425c12-12 12-32 0-44-6-6-14-9-22-9-8 0-16 3-22 9l-81 81-81-81c-6-6-14-9-22-9-8 0-16 3-22 9-12 12-12 32 0 44l81 81-81 81c-12 12-12 32 0 44 12 12 32 12 44 0l81-81 81 81c12 12 32 12 44 0 12-12 12-32 0-44l-81-81 81-81z" horiz-adv-x="1000" />

<glyph glyph-name="tag-user" unicode="&#xeb1a;" d="M750 767h-500c-69 0-125-56-125-124v-455c0-68 56-124 125-124h32c33 0 65-13 88-36l71-71c33-32 85-32 118 0l71 71c23 23 55 36 88 36h32c69 0 125 56 125 124v455c0 68-56 124-125 124z m-250-148c45 0 81-37 81-81 0-45-35-80-78-82-2 0-4 0-6 0-44 2-79 37-79 82 1 44 37 81 82 81z m115-381c-63-42-167-42-230 0-55 37-55 97 0 135 64 42 167 42 230 0 55-38 55-98 0-135z" horiz-adv-x="1000" />

<glyph glyph-name="task-1" unicode="&#xeb1d;" d="M833 48h-378c-18 0-34 15-34 34 0 18 16 34 34 34h378c19 0 35-16 35-34 0-19-16-34-35-34z m0 262h-378c-18 0-34 15-34 34 0 19 16 34 34 34h378c19 0 35-15 35-34 0-19-16-34-35-34z m0 262h-378c-18 0-34 15-34 34 0 19 16 34 34 34h378c19 0 35-15 35-34 0-19-16-34-35-34z m-628-57c-10 0-18 4-25 10l-37 38c-14 14-14 35 0 49 13 13 35 13 48 0l14-14 89 89c13 13 35 13 48 0 13-13 13-35 0-48l-113-114c-7-6-15-10-24-10z m0-262c-9 0-18 3-25 10l-37 38c-14 13-14 35 0 48 13 14 35 14 48 0l14-13 89 89c13 13 35 13 48 0 13-14 13-35 0-49l-113-113c-7-7-16-10-24-10z m0-250c-9 0-18 3-25 10l-37 38c-14 13-14 35 0 48 13 14 35 14 48 0l14-13 89 89c13 13 35 13 48 0 13-14 13-35 0-49l-113-113c-7-7-16-10-24-10z" horiz-adv-x="1000" />

<glyph glyph-name="tick-square-1" unicode="&#xeb2b;" d="M675 767h-350c-151 0-242-91-242-242v-349c0-152 91-243 242-243h349c152 0 242 91 242 242v350c1 151-90 242-241 242z m24-321l-236-236c-6-6-14-10-22-10-8 0-16 4-22 10l-118 118c-12 12-12 32 0 44 12 12 32 12 44 0l96-96 214 214c12 12 32 12 44 0 12-12 12-32 0-44z" horiz-adv-x="1000" />

<glyph glyph-name="timer-2" unicode="&#xeb31;" d="M500 656c-199 0-361-162-361-361 0-199 162-362 361-362 199 0 361 163 361 362 0 199-162 361-361 361z m31-348c0-17-14-31-31-31-17 0-31 14-31 31v209c0 17 14 31 31 31 17 0 31-14 31-31v-209z m89 398h-240c-17 0-30 14-30 30 0 17 13 31 30 31h240c17 0 30-14 30-30 0-17-13-31-30-31z" horiz-adv-x="1000" />

<glyph glyph-name="timer-pause-1" unicode="&#xeb32;" d="M620 706h-240c-17 0-30 14-30 30 0 17 13 31 30 31h240c17 0 30-14 30-30 0-17-13-31-30-31z m-37-688v123c0 75 51 126 127 126h122c10 0 19-1 28-3 0 10 1 20 1 31 0 199-162 361-361 361-199 0-361-162-361-361 0-199 162-362 361-362 35 0 69 6 102 15-12 20-19 43-19 70z m-52 290c0-17-14-31-31-31-17 0-31 14-31 31v209c0 17 14 31 31 31 17 0 31-14 31-31v-209z m301-83h-122c-53 0-85-32-85-85v-122c0-53 32-85 85-85h122c53 0 85 32 85 85v122c0 53-32 85-85 85z m-85-211c0-13-11-24-25-24-13 0-24 11-24 24v130c0 14 11 24 24 24 14 0 25-10 25-24v-130z m97 0c0-13-11-24-24-24-14 0-25 11-25 24v130c0 14 11 24 25 24 13 0 24-10 24-24v-130z" horiz-adv-x="1000" />

<glyph glyph-name="timer-start-1" unicode="&#xeb33;" d="M620 706h-240c-17 0-30 14-30 30 0 17 13 31 30 31h240c17 0 30-14 30-30 0-17-13-31-30-31z m212-481h-122c-53 0-85-32-85-85v-122c0-53 32-85 85-85h122c53 0 85 32 85 85v122c0 53-32 85-85 85z m-12-186l-49-28c-10-6-20-9-29-9-7 0-13 2-19 5-13 8-21 23-21 44v57c0 20 8 35 21 43 13 8 30 7 48-3l49-29c18-10 28-24 28-40 0-15-10-29-28-40z m-237-21v123c0 75 51 126 127 126h122c10 0 19-1 28-3 0 10 1 20 1 31 0 199-162 361-361 361-199 0-361-162-361-361 0-199 162-362 361-362 35 0 69 6 102 15-12 20-19 43-19 70z m-52 290c0-17-14-31-31-31-17 0-31 14-31 31v209c0 17 14 31 31 31 17 0 31-14 31-31v-209z" horiz-adv-x="1000" />

<glyph glyph-name="user-1" unicode="&#xeb54;" d="M500 350c115 0 208 93 208 208 0 115-93 209-208 209-115 0-208-94-208-209 0-115 93-208 208-208z m0-104c-209 0-379-140-379-313 0-11 9-21 21-21h716c12 0 21 10 21 21 0 173-170 313-379 313z" horiz-adv-x="1000" />

<glyph glyph-name="volume-low-1" unicode="&#xeb66;" d="M805 152c-6 0-13 2-18 6-14 11-17 30-7 44 66 87 66 209 0 296-10 14-7 33 7 44 13 10 33 7 43-7 82-109 82-261 0-370-5-9-15-13-25-13z m-165 540c-47 26-107 20-168-18l-121-77c-9-5-18-7-28-7h-38-21c-101 0-157-56-157-157v-166c0-101 56-157 157-157h21 38c10 0 19-3 28-8l121-76c37-23 73-34 106-34 22 0 43 5 62 15 46 26 72 80 72 152v382c0 72-26 126-72 151z" horiz-adv-x="1000" />

<glyph glyph-name="add-circle-1" unicode="&#xeb87;" d="M500-98c-247 0-448 201-448 448 0 247 201 448 448 448 247 0 448-201 448-448 0-247-201-448-448-448z m0 833c-212 0-385-172-385-385 0-212 173-385 385-385 213 0 385 173 385 385 0 213-172 385-385 385z m167-416h-334c-17 0-31 14-31 31 0 17 14 31 31 31h334c17 0 31-14 31-31 0-17-14-31-31-31z m-167-167c-17 0-31 14-31 31v334c0 17 14 31 31 31 17 0 31-14 31-31v-334c0-17-14-31-31-31z" horiz-adv-x="1000" />

<glyph glyph-name="add-square" unicode="&#xeb88;" d="M667 319h-334c-17 0-31 14-31 31 0 17 14 31 31 31h334c17 0 31-14 31-31 0-17-14-31-31-31z m-167-167c-17 0-31 14-31 31v334c0 17 14 31 31 31 17 0 31-14 31-31v-334c0-17-14-31-31-31z m125-250h-250c-226 0-323 97-323 323v250c0 226 97 323 323 323h250c226 0 323-97 323-323v-250c0-226-97-323-323-323z m-250 833c-192 0-260-68-260-260v-250c0-192 68-260 260-260h250c192 0 260 68 260 260v250c0 192-68 260-260 260h-250z" horiz-adv-x="1000" />

<glyph glyph-name="add-1" unicode="&#xeb89;" d="M750 319h-500c-17 0-31 14-31 31 0 17 14 31 31 31h500c17 0 31-14 31-31 0-17-14-31-31-31z m-250-250c-17 0-31 14-31 31v500c0 17 14 31 31 31 17 0 31-14 31-31v-500c0-17-14-31-31-31z" horiz-adv-x="1000" />

<glyph glyph-name="arrow-circle-down-1" unicode="&#xeba6;" d="M500-98c-247 0-448 201-448 448 0 247 201 448 448 448 247 0 448-201 448-448 0-247-201-448-448-448z m0 833c-212 0-385-172-385-385 0-212 173-385 385-385 213 0 385 173 385 385 0 213-172 385-385 385z m0-510c-8 0-16 3-22 9l-147 147c-12 12-12 32 0 44 12 12 32 12 44 0l125-125 125 125c12 12 32 12 44 0 12-12 12-32 0-44l-147-147c-6-6-14-9-22-9z" horiz-adv-x="1000" />

<glyph glyph-name="arrow-circle-left-1" unicode="&#xeba7;" d="M500-98c-247 0-448 201-448 448 0 247 201 448 448 448 247 0 448-201 448-448 0-247-201-448-448-448z m0 833c-212 0-385-172-385-385 0-212 173-385 385-385 213 0 385 173 385 385 0 213-172 385-385 385z m53-563c-8 0-16 3-23 9l-147 147c-12 12-12 32 0 44l147 147c13 12 33 12 45 0 12-12 12-32 0-44l-125-125 125-125c12-12 12-32 0-44-6-6-14-9-22-9z" horiz-adv-x="1000" />

<glyph glyph-name="arrow-circle-right-1" unicode="&#xeba8;" d="M500-98c-247 0-448 201-448 448 0 247 201 448 448 448 247 0 448-201 448-448 0-247-201-448-448-448z m0 833c-212 0-385-172-385-385 0-212 173-385 385-385 213 0 385 173 385 385 0 213-172 385-385 385z m-52-563c-8 0-16 3-23 9-12 12-12 32 0 44l125 125-125 125c-12 12-12 32 0 44 13 12 33 12 45 0l147-147c12-12 12-32 0-44l-147-147c-7-6-15-9-22-9z" horiz-adv-x="1000" />

<glyph glyph-name="arrow-circle-up-1" unicode="&#xeba9;" d="M500-98c-247 0-448 201-448 448 0 247 201 448 448 448 247 0 448-201 448-448 0-247-201-448-448-448z m0 833c-212 0-385-172-385-385 0-212 173-385 385-385 213 0 385 173 385 385 0 213-172 385-385 385z m147-469c-8 0-16 3-22 9l-125 125-125-125c-12-12-32-12-44 0-12 13-12 33 0 45l147 147c12 12 32 12 44 0l147-147c12-12 12-32 0-45-6-6-14-9-22-9z" horiz-adv-x="1000" />

<glyph glyph-name="arrow-down-1" unicode="&#xebaa;" d="M500 150c-29 0-58 11-80 33l-272 272c-12 12-12 32 0 44 12 12 32 12 44 0l272-271c20-20 52-20 72 0l272 271c12 12 32 12 44 0 12-12 12-32 0-44l-272-272c-22-22-51-33-80-33z" horiz-adv-x="1000" />

<glyph glyph-name="arrow-left-2" unicode="&#xebae;" d="M625-11c-8 0-16 3-22 9l-272 272c-44 44-44 116 0 160l272 272c12 12 32 12 44 0 12-12 12-32 0-44l-272-272c-20-20-20-52 0-72l272-272c12-12 12-32 0-44-6-6-14-9-22-9z" horiz-adv-x="1000" />

<glyph glyph-name="arrow-left" unicode="&#xebb0;" d="M399 66c-8 0-16 3-22 9l-253 253c-12 12-12 32 0 44l253 253c12 12 32 12 44 0 12-12 12-32 0-44l-231-231 231-231c12-12 12-32 0-44-6-6-14-9-22-9z m455 253h-701c-17 0-31 14-31 31 0 17 14 31 31 31h701c17 0 31-14 31-31 0-17-14-31-31-31z" horiz-adv-x="1000" />

<glyph glyph-name="arrow-right-3" unicode="&#xebb3;" d="M371-11c-8 0-16 3-22 9-12 12-12 32 0 44l272 272c20 20 20 52 0 72l-272 272c-12 12-12 32 0 44 12 12 32 12 44 0l272-272c21-21 33-50 33-80 0-30-11-59-33-80l-272-272c-6-6-14-9-22-9z" horiz-adv-x="1000" />

<glyph glyph-name="arrow-up-2" unicode="&#xebbd;" d="M830 192c-8 0-16 3-22 9l-272 272c-20 20-52 20-72 0l-272-272c-12-12-32-12-44 0-12 12-12 32 0 44l272 272c44 44 116 44 160 0l272-272c12-12 12-32 0-44-6-6-14-9-22-9z" horiz-adv-x="1000" />

<glyph glyph-name="call" unicode="&#xec1f;" d="M727-98c-47 0-97 11-148 33-50 21-100 50-149 86-49 36-96 76-141 119-44 45-84 92-119 140-36 50-65 100-85 149-22 51-33 101-33 149 0 32 6 63 17 92 12 29 31 57 56 80 32 32 69 48 108 48 16 0 33-4 47-10 16-8 30-19 40-34l97-136c8-13 15-24 20-36 5-12 8-25 8-37 0-16-5-31-13-46-7-11-16-23-28-35l-29-30c1-1 1-2 2-3 5-8 15-23 34-46 20-23 39-45 59-64 24-24 45-43 64-59 24-20 39-30 48-35l-1-2 31 30c13 13 25 23 37 29 23 14 52 16 81 4 11-4 23-10 35-19l139-99c15-10 26-23 33-39 6-16 9-31 9-45 0-20-4-40-13-59-9-19-20-35-33-50-24-26-50-45-80-57-29-12-60-18-93-18z m-494 833c-23 0-44-10-65-30-19-17-32-37-40-58-9-22-13-45-13-69 0-39 9-81 27-125 19-44 45-90 78-135 34-46 72-91 113-133 42-41 87-80 133-113 45-33 92-60 137-79 72-31 138-38 193-15 22 9 40 22 57 42 10 10 17 21 24 35 5 10 7 21 7 32 0 6-1 13-4 21-2 2-4 7-12 12l-138 98c-9 6-16 10-23 13-9 4-13 8-27-1-9-4-16-10-25-19l-31-31c-16-16-41-20-61-12l-11 5c-17 9-37 23-59 42-20 17-42 37-68 63-20 20-41 42-62 67-20 23-34 43-43 59l-5 12c-2 10-3 15-3 21 0 15 6 28 16 39l31 32c9 9 15 17 19 24 3 5 5 10 5 14 0 3-2 8-4 13-3 7-7 14-13 22l-97 137c-4 6-9 10-15 13-7 3-14 4-21 4z m348-510l-6-29 11 29c-2 1-4 0-5 0z" horiz-adv-x="1000" />

<glyph glyph-name="camera-slash-1" unicode="&#xec20;" d="M375 402h-125c-17 0-31 14-31 31 0 17 14 32 31 32h125c17 0 31-15 31-32 0-17-14-31-31-31z m343-500h-436c-17 0-32 14-32 31 0 17 15 32 32 32h436c85 0 130 43 135 127l22 344c2 29-7 59-25 82-10 14-7 34 7 44 13 11 33 8 43-6 27-36 40-80 38-124l-22-344c-8-118-80-186-198-186z m-575 64c-10 0-20 5-26 14-19 30-30 66-33 108l-21 344c-4 52 14 102 50 140 35 38 85 59 137 59 13 0 26 8 33 21l30 59c24 49 86 87 140 87h95c54 0 115-38 140-86l30-61c6-12 18-20 32-20 17 0 31-14 31-31 0-17-14-31-31-31-37 0-71 21-88 54l-31 60c-13 28-53 52-83 52h-96c-31 0-70-24-84-52l-30-60c-17-33-51-54-88-54-35 0-67-14-92-40-23-25-35-59-33-93l22-344c1-31 9-57 23-77 9-15 5-34-9-43-6-4-12-6-18-6z m357 103c-37 0-73 12-102 35-14 11-16 31-6 44 11 14 31 16 44 5 18-14 41-22 64-22 58 0 104 47 104 104 0 20-5 40-16 56-9 14-5 34 10 43 15 9 34 5 43-9 17-27 26-57 26-89 0-93-75-167-167-167z m-417-167c-8 0-15 3-22 9-12 12-12 32 0 44l834 834c12 12 32 12 44 0 12-12 12-32 0-44l-834-834c-6-6-14-9-22-9z" horiz-adv-x="1000" />

<glyph glyph-name="camera-1" unicode="&#xec21;" d="M718-98h-436c-117 0-191 70-198 186l-21 344c-4 52 14 102 50 140 35 38 85 59 137 59 13 0 26 8 33 21l30 59c24 49 86 87 140 87h95c54 0 115-38 140-86l30-61c6-12 18-20 32-20 52 0 102-21 137-59 36-39 54-88 51-140l-22-344c-8-118-80-186-198-186z m-265 833c-31 0-70-24-85-52l-30-60c-17-33-51-54-88-54-35 0-67-14-92-40-23-25-35-59-33-93l22-344c5-84 50-127 135-127h436c85 0 130 43 135 127l22 344c2 34-10 68-33 93-24 26-57 40-92 40-37 0-71 21-88 54l-31 60c-13 28-53 52-83 52h-95v0z m110-250h-125c-18 0-32 15-32 32 0 17 14 31 32 31h125c17 0 31-14 31-31 0-17-14-32-31-32z m-63-416c-92 0-167 74-167 166 0 93 75 167 167 167 92 0 167-74 167-167 0-92-75-166-167-166z m0 271c-57 0-104-47-104-105 0-57 47-104 104-104 58 0 104 47 104 104 0 58-46 105-104 105z" horiz-adv-x="1000" />

<glyph glyph-name="category" unicode="&#xec33;" d="M292 402h-84c-100 0-156 56-156 156v84c0 101 56 156 156 156h84c101 0 156-55 156-156v-84c0-100-55-156-156-156z m-84 333c-65 0-93-27-93-93v-84c0-65 28-93 93-93h84c66 0 93 28 93 93v84c0 66-27 93-93 93h-84z m584-333h-84c-100 0-156 56-156 156v84c0 101 56 156 156 156h84c101 0 156-55 156-156v-84c0-100-55-156-156-156z m-84 333c-65 0-93-27-93-93v-84c0-65 28-93 93-93h84c66 0 93 28 93 93v84c0 66-27 93-93 93h-84z m84-833h-84c-100 0-156 55-156 156v84c0 101 56 156 156 156h84c101 0 156-55 156-156v-84c0-101-55-156-156-156z m-84 333c-65 0-93-27-93-93v-84c0-66 28-93 93-93h84c66 0 93 27 93 93v84c0 66-27 93-93 93h-84z m-416-333h-84c-100 0-156 55-156 156v84c0 101 56 156 156 156h84c101 0 156-55 156-156v-84c0-101-55-156-156-156z m-84 333c-65 0-93-27-93-93v-84c0-66 28-93 93-93h84c66 0 93 27 93 93v84c0 66-27 93-93 93h-84z" horiz-adv-x="1000" />

<glyph glyph-name="chart-1" unicode="&#xec35;" d="M917-98h-834c-17 0-31 14-31 31 0 17 14 32 31 32h834c17 0 31-15 31-32 0-17-14-31-31-31z m-323 0h-188c-17 0-31 14-31 31v750c0 72 40 115 106 115h38c66 0 106-43 106-115v-750c0-17-14-31-31-31z m-156 63h125v718c0 48-23 52-44 52h-38c-21 0-43-4-43-52v-718z m-146-63h-167c-17 0-31 14-31 31v500c0 72 36 115 98 115h33c61 0 98-43 98-115v-500c0-17-14-31-31-31z m-136 63h104v468c0 52-22 52-35 52h-33c-13 0-36 0-36-52v-468z m719-63h-167c-17 0-31 14-31 31v292c0 72 37 115 98 115h33c62 0 98-43 98-115v-292c0-17-14-31-31-31z m-135 63h104v260c0 52-23 52-36 52h-33c-12 0-35 0-35-52v-260z" horiz-adv-x="1000" />

<glyph glyph-name="edit-2" unicode="&#xeca7;" d="M231 37c-26 0-49 8-66 25-22 20-32 51-29 84l16 135c3 26 18 59 36 78l342 362c85 90 175 93 265 7 90-85 93-174 8-265l-343-362c-17-18-50-36-75-40l-134-23c-7 0-13-1-20-1z m433 692c-32 0-60-20-89-50l-342-363c-8-8-18-29-19-41l-16-135c-1-14 2-25 10-32 7-8 18-10 32-8l134 23c12 2 32 13 41 22l342 362c51 55 70 106-5 176-34 32-62 46-88 46z m59-335c-1 0-3 0-3 0-130 13-235 111-255 241-2 17 9 33 26 35 17 3 33-9 36-26 16-101 98-178 199-188 17-2 30-17 28-34-2-16-16-28-31-28z m152-492h-750c-17 0-31 14-31 31 0 17 14 32 31 32h750c17 0 31-15 31-32 0-17-14-31-31-31z" horiz-adv-x="1000" />

<glyph glyph-name="edit" unicode="&#xeca8;" d="M625-98h-250c-226 0-323 97-323 323v250c0 226 97 323 323 323h83c17 0 32-14 32-31 0-17-15-32-32-32h-83c-192 0-260-68-260-260v-250c0-192 68-260 260-260h250c192 0 260 68 260 260v83c0 17 15 32 32 32 17 0 31-15 31-32v-83c0-226-97-323-323-323z m-271 211c-25 0-49 9-66 26-20 20-29 50-24 81l18 125c3 25 19 56 36 73l328 328c83 83 167 83 250 0 46-45 66-91 62-138-4-37-24-74-62-111l-328-329c-17-17-48-33-73-36l-125-18c-5-1-11-1-16-1z m336 589l-328-328c-8-8-17-26-19-37l-18-126c-1-12 1-22 8-28 6-6 16-9 28-7l125 18c11 1 30 11 37 19l329 328c27 27 41 51 43 74 3 27-12 55-43 88-67 66-113 47-162-1z m137-262c-3 0-6 1-8 2-110 31-197 118-228 227-4 17 5 34 22 39 17 5 34-5 38-22 25-88 96-159 184-184 17-4 27-22 22-39-4-14-16-23-30-23z" horiz-adv-x="1000" />

<glyph glyph-name="element-1" unicode="&#xecac;" d="M824 277h-169c-83 0-124 39-124 119v283c0 80 41 119 124 119h169c84 0 124-39 124-119v-283c0-80-41-119-124-119z m-169 458c-52 0-61-14-61-56v-283c0-42 9-56 61-56h169c53 0 61 14 61 56v283c0 42-8 56-61 56h-169z m169-833h-169c-83 0-124 39-124 119v75c0 80 41 119 124 119h169c84 0 124-39 124-119v-75c0-80-41-119-124-119z m-169 250c-52 0-61-14-61-56v-75c0-42 9-56 61-56h169c53 0 61 14 61 56v75c0 42-8 56-61 56h-169z m-310-250h-169c-83 0-124 39-124 119v283c0 80 41 119 124 119h169c83 0 124-39 124-119v-283c0-80-41-119-124-119z m-169 458c-53 0-61-14-61-56v-283c0-42 8-56 61-56h169c53 0 61 14 61 56v283c0 42-8 56-61 56h-169z m169 125h-169c-83 0-124 39-124 119v75c0 80 41 119 124 119h169c83 0 124-39 124-119v-75c0-80-41-119-124-119z m-169 250c-53 0-61-14-61-56v-75c0-42 8-56 61-56h169c53 0 61 14 61 56v75c0 42-8 56-61 56h-169z" horiz-adv-x="1000" />

<glyph glyph-name="export-3" unicode="&#xecbc;" d="M542 360c-8 0-16 3-22 10-12 12-12 32 0 44l341 341c12 13 32 13 44 0 13-12 13-32 0-44l-341-341c-6-7-14-10-22-10z m375 175c-17 0-32 15-32 32v168h-168c-17 0-32 15-32 32 0 17 15 31 32 31h200c17 0 31-14 31-31v-200c0-17-14-32-31-32z m-292-633h-250c-226 0-323 97-323 323v250c0 226 97 323 323 323h83c17 0 32-14 32-31 0-17-15-32-32-32h-83c-192 0-260-68-260-260v-250c0-192 68-260 260-260h250c192 0 260 68 260 260v83c0 17 15 32 32 32 17 0 31-15 31-32v-83c0-226-97-323-323-323z" horiz-adv-x="1000" />

<glyph glyph-name="eye-slash" unicode="&#xecbf;" d="M395 213c-8 0-16 3-22 10-35 34-53 79-53 127 0 100 80 180 180 180 48 0 93-18 128-52 5-6 9-14 9-23 0-8-4-16-9-22l-211-210c-7-7-14-10-22-10z m105 255c-65 0-118-53-118-118 0-21 6-41 16-58l160 161c-17 10-37 15-58 15z m-267-389c-7 0-14 2-20 7-45 38-85 85-119 139-44 69-44 181 0 250 102 159 250 251 406 251 92 0 182-32 261-91 14-11 17-30 7-44-11-14-30-17-44-6-69 51-146 78-224 78-135 0-263-80-353-222-32-48-32-133 0-182 31-49 67-91 106-125 13-11 15-31 4-44-6-7-15-11-24-11z m267-105c-55 0-110 11-162 34-15 6-23 25-16 40 6 16 25 24 41 17 44-19 90-28 137-28 134 0 263 81 353 222 31 49 31 134 0 182-13 21-27 40-42 59-11 13-9 33 4 44 14 11 33 9 45-5 16-20 32-41 46-64 44-69 44-181 0-250-102-159-250-251-406-251z m29 198c-15 0-28 11-31 26-3 17 8 33 25 36 46 8 84 46 92 92 4 17 20 28 37 25 17-3 28-19 25-36-13-72-71-130-142-143-2 1-4 0-6 0z m-446-270c-8 0-15 3-22 9-12 12-12 32 0 44l312 312c12 12 32 12 44 0 12-12 12-32 0-44l-312-312c-6-6-14-9-22-9z m522 522c-7 0-15 3-22 9-12 12-12 32 0 45l312 311c12 12 32 12 44 0 12-12 12-32 0-44l-311-312c-7-6-15-9-23-9z" horiz-adv-x="1000" />

<glyph glyph-name="eye" unicode="&#xecc0;" d="M500 170c-100 0-180 80-180 180 0 100 80 180 180 180 100 0 180-80 180-180 0-100-80-180-180-180z m0 298c-65 0-118-53-118-118 0-65 53-118 118-118 65 0 118 53 118 118 0 65-53 118-118 118z m0-494c-157 0-305 92-406 251-44 69-44 181 0 250 102 159 250 251 406 251 156 0 304-92 406-251 44-69 44-181 0-250-102-159-250-251-406-251z m0 689c-135 0-263-80-353-222-32-48-32-133 0-182 90-141 218-222 353-222 135 0 263 81 353 222 32 49 32 134 0 182-90 142-218 222-353 222z" horiz-adv-x="1000" />

<glyph glyph-name="gallery" unicode="&#xecf4;" d="M625-98h-250c-226 0-323 97-323 323v250c0 226 97 323 323 323h250c226 0 323-97 323-323v-250c0-226-97-323-323-323z m-250 833c-192 0-260-68-260-260v-250c0-192 68-260 260-260h250c192 0 260 68 260 260v250c0 192-68 260-260 260h-250z m0-333c-63 0-115 51-115 115 0 63 52 114 115 114 63 0 115-51 115-114 0-64-52-115-115-115z m0 167c-29 0-52-24-52-52 0-29 23-52 52-52 29 0 52 23 52 52 0 28-23 52-52 52z m-264-540c-10 0-20 5-26 14-9 14-5 34 9 43l206 138c45 31 107 27 148-8l13-12c21-18 57-18 77 0l173 149c44 38 114 38 159 0l68-58c12-12 14-31 3-45-11-12-31-14-44-3l-68 58c-21 18-56 18-77 0l-174-148c-44-38-113-38-158 0l-14 12c-19 16-51 18-72 3l-205-138c-6-3-12-5-18-5z" horiz-adv-x="1000" />

<glyph glyph-name="glass" unicode="&#xecfd;" d="M660-98h-320c-112 0-162 42-185 76-33 51-32 121 4 202l159 362c-22 6-42 18-58 34-24 24-38 57-38 92 0 72 58 130 130 130h296c35 0 67-14 92-38 33-33 45-79 35-124-11-44-48-80-93-93l159-364c35-80 37-150 3-201-22-34-73-76-184-76z m-308 833c-37 0-68-30-68-67 0-18 8-35 20-48 12-12 30-20 48-20h12c11 0 21-5 26-14 6-8 7-20 3-29l-177-402c-26-60-30-111-9-142 26-40 86-48 133-48h320c45 0 105 8 132 48 21 32 18 82-8 141l-176 403c-4 9-3 21 3 29 6 9 15 14 26 14h7c33 0 63 22 70 51 6 24-1 47-18 64-13 13-30 20-48 20h-296z m225-512c-28 0-57 4-87 14-118 40-240 36-242 36-16-3-31 12-32 30-1 17 13 31 30 32 5 0 135 5 264-38 108-37 214 32 215 33 15 10 34 5 44-9 9-14 6-33-9-43-4-3-83-55-183-55z" horiz-adv-x="1000" />

<glyph glyph-name="heart-2" unicode="&#xed21;" d="M500-52c-13 0-25 2-36 5-159 55-412 249-412 535 0 146 118 264 263 264 70 0 136-27 185-77 49 50 115 77 185 77 145 0 263-119 263-264 0-287-253-480-412-535-11-3-23-5-36-5z m-185 742c-110 0-200-91-200-202 0-285 273-443 370-476 7-2 23-2 31 0 96 33 370 191 370 476 0 111-90 202-201 202-63 0-122-30-160-81-11-16-38-16-50 0-38 51-97 81-160 81z" horiz-adv-x="1000" />

<glyph glyph-name="home" unicode="&#xed2e;" d="M500 69c-17 0-31 14-31 31v125c0 17 14 31 31 31 17 0 31-14 31-31v-125c0-17-14-31-31-31z m233-159h-466c-76 0-145 58-158 133l-55 332c-9 52 16 118 57 151l289 231c56 45 144 45 200 0l289-231c41-33 66-99 57-151l-55-332c-13-73-83-133-158-133z m-233 818c-22 0-44-7-61-20l-288-231c-24-19-40-62-35-92l55-332c7-43 51-81 96-81h466c45 0 89 38 96 82l56 331c4 30-12 74-35 92l-289 231c-17 13-39 20-61 20z" horiz-adv-x="1000" />

<glyph glyph-name="import-2" unicode="&#xed35;" d="M575 394c-8 0-16 3-22 9-12 12-12 32 0 44l342 342c12 12 32 12 44 0 12-12 12-32 0-44l-342-342c-6-6-14-9-22-9z m168-34h-201c-17 0-32 15-32 32v201c0 17 15 31 32 31 17 0 31-14 31-31v-170h170c17 0 31-14 31-31 0-17-14-32-31-32z m-118-458h-250c-226 0-323 97-323 323v250c0 226 97 323 323 323h83c17 0 32-14 32-31 0-17-15-32-32-32h-83c-192 0-260-68-260-260v-250c0-192 68-260 260-260h250c192 0 260 68 260 260v83c0 17 15 32 32 32 17 0 31-15 31-32v-83c0-226-97-323-323-323z" horiz-adv-x="1000" />

<glyph glyph-name="lock-1" unicode="&#xed5b;" d="M750 402c-17 0-31 14-31 31v84c0 131-37 218-219 218-182 0-219-87-219-218v-84c0-17-14-31-31-31-17 0-31 14-31 31v84c0 121 29 281 281 281 252 0 281-160 281-281v-84c0-17-14-31-31-31z m-42-500h-416c-184 0-240 56-240 240v83c0 184 56 240 240 240h416c184 0 240-56 240-240v-83c0-184-56-240-240-240z m-416 500c-149 0-177-28-177-177v-83c0-149 28-177 177-177h416c150 0 177 28 177 177v83c0 149-27 177-177 177h-416z m41-260c-5 0-10 1-15 3-6 2-10 5-14 9-8 8-12 18-12 29 0 6 1 11 3 16 2 6 5 10 9 14 4 4 8 7 14 9 15 6 33 3 45-9 4-4 7-9 9-14 2-5 3-10 3-16 0-10-5-21-12-29-8-8-19-12-30-12z m167 0c-11 0-22 4-30 12-7 8-12 18-12 29 0 6 1 11 4 16 2 5 5 10 8 14 10 10 25 14 38 11 3 0 5-1 8-2 2-1 5-2 7-4 2-1 5-3 7-5 3-4 6-9 8-14 2-5 4-10 4-16 0-11-5-21-12-29-2-2-5-4-7-5-2-2-5-3-7-4-3-1-5-2-8-2-3-1-5-1-8-1z m167 0c-12 0-22 4-30 12-4 4-7 9-9 14-2 5-3 10-3 15 0 11 5 22 12 30 2 2 4 3 6 5 3 2 5 3 8 4 2 1 5 2 7 2 14 3 28-1 38-11 8-8 12-18 12-30 0-5-1-10-3-15-2-6-5-10-9-14-8-8-18-12-29-12z" horiz-adv-x="1000" />

<glyph glyph-name="milk" unicode="&#xed95;" d="M625-98h-250c-86 0-156 70-156 156v210c0 8 3 16 9 22 6 5 14 9 22 9l162-1c35 0 70-8 102-24 23-12 48-18 74-18h162c17 0 31-14 31-31v-167c0-86-70-156-156-156z m-344 334v-178c0-51 42-93 94-93h250c52 0 94 42 94 93v136h-131c-35 0-70 8-102 24-23 12-48 17-74 17l-131 1z m469-42h-162c-35 0-70 8-102 24-23 12-48 17-74 17l-162 1c-17 0-31 14-31 32v131c0 27 14 61 34 81l88 88c2 2 3 5 3 7v67c0 17 14 31 31 31h250c17 0 31-14 31-31v-67c0-2 2-5 3-7l89-88c19-20 33-54 33-81v-174c0-17-14-31-31-31z m-469 105l131-1c35 0 70-8 102-24 23-12 48-18 74-18h131v143c0 11-8 29-16 37l-88 88c-13 14-21 32-21 51v35h-188v-35c0-19-8-37-21-51l-88-88c-8-8-16-26-16-37v-100z m469-147c-17 0-31 14-31 31v42c0 17 14 31 31 31 17 0 31-14 31-31v-42c0-17-14-31-31-31z m-500 43c-17 0-31 14-31 31v42c0 17 14 31 31 31 17 0 31-14 31-31v-42c0-17-14-31-31-31z m354 415h-208c-52 0-94 43-94 94 0 52 42 94 94 94h208c52 0 94-42 94-94 0-51-42-94-94-94z m-208 125c-17 0-31-14-31-31 0-17 14-31 31-31h208c17 0 31 14 31 31 0 17-14 31-31 31h-208z" horiz-adv-x="1000" />

<glyph glyph-name="minus-cirlce" unicode="&#xed97;" d="M497-98c-247 0-448 201-448 448 0 247 201 448 448 448 246 0 448-201 448-448 0-247-201-448-448-448z m0 833c-213 0-386-172-386-385 0-212 173-385 386-385 212 0 385 173 385 385 0 213-173 385-385 385z m166-416h-333c-17 0-31 14-31 31 0 17 14 31 31 31h333c17 0 32-14 32-31 0-17-14-31-32-31z" horiz-adv-x="1000" />

<glyph glyph-name="minus" unicode="&#xed99;" d="M750 319h-500c-17 0-31 14-31 31 0 17 14 31 31 31h500c17 0 31-14 31-31 0-17-14-31-31-31z" horiz-adv-x="1000" />

<glyph glyph-name="more-2" unicode="&#xedaf;" d="M500 430c-67 0-121 55-121 122 0 66 54 121 121 121 67 0 121-55 121-121 0-67-54-122-121-122z m0 180c-32 0-59-26-59-58 0-33 27-59 59-59 33 0 59 26 59 59 0 32-26 58-59 58z m-217-583c-67 0-121 55-121 121 0 67 54 122 121 122 67 0 121-55 121-122 0-66-54-121-121-121z m0 180c-33 0-59-26-59-59 0-32 26-58 59-58 32 0 59 26 59 58 0 33-27 59-59 59z m434-180c-67 0-121 55-121 121 0 67 54 122 121 122 67 0 121-55 121-122 0-66-54-121-121-121z m0 180c-32 0-59-26-59-59 0-32 27-58 59-58 33 0 59 26 59 58 0 33-26 59-59 59z" horiz-adv-x="1000" />

<glyph glyph-name="more-circle" unicode="&#xedb0;" d="M500-98c-247 0-448 201-448 448 0 247 201 448 448 448 247 0 448-201 448-448 0-247-201-448-448-448z m0 833c-212 0-385-172-385-385 0-212 173-385 385-385 213 0 385 173 385 385 0 213-172 385-385 385z m0-427c-23 0-42 19-42 42 0 23 19 42 42 42 23 0 42-19 42-42 0-23-19-42-42-42z m167 0c-24 0-42 19-42 42 0 23 19 42 42 42 23 0 41-19 41-42 0-23-18-42-41-42z m-334 0c-23 0-41 19-41 42 0 23 18 42 41 42 23 0 42-19 42-42 0-23-18-42-42-42z" horiz-adv-x="1000" />

<glyph glyph-name="more" unicode="&#xedb2;" d="M208 235c-63 0-114 52-114 115 0 63 51 115 114 115 64 0 115-52 115-115 0-63-51-115-115-115z m0 167c-28 0-52-23-52-52 0-29 24-52 52-52 29 0 52 23 52 52 0 29-23 52-52 52z m584-167c-64 0-115 52-115 115 0 63 51 115 115 115 63 0 114-52 114-115 0-63-51-115-114-115z m0 167c-29 0-52-23-52-52 0-29 23-52 52-52 28 0 52 23 52 52 0 29-24 52-52 52z m-292-167c-63 0-115 52-115 115 0 63 52 115 115 115 63 0 115-52 115-115 0-63-52-115-115-115z m0 167c-29 0-52-23-52-52 0-29 23-52 52-52 29 0 52 23 52 52 0 29-23 52-52 52z" horiz-adv-x="1000" />

<glyph glyph-name="notification" unicode="&#xedd2;" d="M501-5c-97 0-194 15-286 46-35 12-62 37-74 69-12 32-8 67 12 99l47 79c10 17 20 50 20 70v120c0 155 126 282 281 282 155 0 281-127 281-282v-120c0-19 9-53 19-70l48-79c18-30 21-66 9-99-12-33-38-58-71-69-92-31-189-46-286-46z m0 702c-121 0-219-98-219-219v-120c0-30-12-75-28-102l-48-79c-9-16-11-32-6-46 5-14 18-25 35-31 174-58 358-58 533 0 15 5 26 17 32 32 5 15 4 31-5 45l-47 79c-16 27-28 72-28 102v120c0 121-98 219-219 219z m77-11c-3 0-5 0-8 1-12 3-24 6-35 8-36 4-70 2-102-8-12-4-24 0-32 9-8 9-11 21-6 32 17 44 59 73 106 73 48 0 89-28 107-73 4-11 2-23-6-32-7-7-15-10-24-10z m-77-786c-41 0-81 16-111 45-29 30-45 70-45 111h62c0-25 10-49 28-66 17-18 41-28 66-28 52 0 94 42 94 94h62c0-86-70-156-156-156z" horiz-adv-x="1000" />

<glyph glyph-name="profile-add" unicode="&#xedf4;" d="M771 6h-167c-17 0-31 14-31 32 0 17 14 31 31 31h167c17 0 31-14 31-31 0-18-14-32-31-32z m-83-83c-18 0-32 14-32 31v167c0 17 14 31 32 31 17 0 31-14 31-31v-167c0-17-14-31-31-31z m-181 443c-2 0-2 0-4 0-2 0-5 0-7 0-121 4-212 99-212 216-1 57 22 111 63 152 41 41 95 64 153 64 119 0 216-97 216-216 0-117-91-212-208-216 0 0-1 0-1 0z m-7 369c-42 0-80-16-109-45-29-29-45-67-45-108 0-83 65-151 148-153 3 0 8 0 14 0 82 4 145 71 145 153 0 84-69 153-153 153z m0-825c-85 0-166 22-227 63-58 39-89 92-89 149 0 57 32 109 89 148 125 83 327 83 452 0 14-10 18-30 9-44-10-14-29-18-44-8-103 69-278 69-382 0-40-27-62-61-62-96 0-36 22-70 62-97 50-34 118-52 191-52 17 0 31-14 31-31 0-17-13-32-30-32z" horiz-adv-x="1000" />

<glyph glyph-name="ranking" unicode="&#xee08;" d="M677-95c-18 0-41 6-69 22l-93 56c-7 4-23 4-30 0l-93-56c-59-35-95-20-111-8-16 11-41 41-26 108l23 96c1 8-3 22-8 28l-78 77c-42 42-38 78-32 97 5 18 24 49 82 59l99 17c7 1 19 9 22 16l55 110c27 53 62 62 82 62 19 0 55-8 82-62l55-110c3-7 14-15 21-16l100-17c57-9 76-41 82-59 5-19 9-55-33-97l-77-77c-6-6-10-20-8-28l22-95c15-68-9-97-26-109-7-7-21-14-41-14z m-177 143c17 0 33-3 47-11l93-56c25-14 39-14 42-12 3 3 8 16 1 44l-22 96c-6 28 4 65 25 85l77 78c16 15 19 27 17 33-1 5-11 13-32 16l-100 17c-27 5-55 25-67 50l-55 110c-10 18-20 27-26 27-7 0-17-8-27-27l-55-110c-12-25-40-45-67-50l-99-17c-22-3-32-11-33-16-2-6 1-18 17-33l77-78c21-20 32-57 25-85l-22-96c-6-28-2-42 1-44 3-3 18-3 42 12l94 55c14 8 30 12 47 12z m-250 396c-17 0-31 14-31 31v292c0 17 14 31 31 31 17 0 31-14 31-31v-292c0-17-14-31-31-31z m500 0c-17 0-31 14-31 31v292c0 17 14 31 31 31 17 0 31-14 31-31v-292c0-17-14-31-31-31z m-250 208c-17 0-31 14-31 31v84c0 17 14 31 31 31 17 0 31-14 31-31v-84c0-17-14-31-31-31z" horiz-adv-x="1000" />

<glyph glyph-name="receipt-1" unicode="&#xee09;" d="M809 360h-142c-17 0-32 15-32 32v291c0 31 13 60 34 81 22 22 51 34 81 34h1c52 0 101-21 139-58 37-38 58-88 58-140v-101c0-83-56-139-139-139z m-111 63h111c49 0 76 28 76 76v101c0 36-14 70-39 96-26 25-59 39-95 39 0 0 0 0-1 0-13 0-27-5-37-15-10-10-15-23-15-37v-260z m-323-545c-20 0-38 7-52 22l-69 69c-4 4-9 4-14 1l-71-53c-22-17-51-20-76-7-25 12-40 37-40 65v625c0 126 72 198 197 198h500c18 0 32-14 32-31 0-17-14-32-32-32-28 0-52-23-52-52v-708c0-28-15-53-40-65-25-13-54-10-76 7l-72 53c-4 3-10 2-13-1l-70-70c-14-14-32-21-52-21z m-129 157c19 0 38-7 52-22l70-70c2-2 5-3 7-3 2 0 5 1 8 3l70 70c25 26 66 29 95 7l71-53c4-4 9-2 11-1 2 1 5 4 5 9v708c0 19 5 37 13 52h-398c-92 0-135-42-135-135v-625c0-6 3-8 5-10 3-1 7-2 11 2l72 53c12 10 28 15 43 15z" horiz-adv-x="1000" />

<glyph glyph-name="search-normal-1" unicode="&#xee43;" d="M479-56c-235 0-427 191-427 427 0 235 192 427 427 427 236 0 427-192 427-427 0-236-191-427-427-427z m0 791c-201 0-364-163-364-364 0-201 163-365 364-365 201 0 365 164 365 365 0 201-164 364-365 364z m438-833c-8 0-16 3-22 9l-84 84c-12 12-12 32 0 44 12 12 32 12 44 0l84-84c12-12 12-32 0-44-6-6-14-9-22-9z" horiz-adv-x="1000" />

<glyph glyph-name="search-normal" unicode="&#xee44;" d="M458-15c-224 0-406 183-406 407 0 224 182 406 406 406 225 0 407-182 407-406 0-224-182-407-407-407z m0 750c-189 0-343-154-343-343 0-190 154-344 343-344 190 0 344 154 344 344 0 189-154 343-344 343z m382-835c-3 0-7 1-10 1-19 3-55 16-75 76-10 31-6 62 11 86 17 24 46 37 79 37 42 0 75-16 90-45 15-29 11-65-12-101-30-44-62-54-83-54z m-25 96c7-21 17-32 24-33 6-1 19 7 32 26 12 18 13 31 10 36-3 6-15 13-36 13-13 0-23-5-28-12-5-7-6-18-2-30z" horiz-adv-x="1000" />

<glyph glyph-name="send-3" unicode="&#xee50;" d="M225-56c-46 0-76 16-95 34-36 37-62 115 20 280l37 72c4 10 4 30 0 40l-37 72c-82 165-56 243-20 280 37 36 115 63 280-20l357-179c88-44 137-105 137-173 0-67-49-129-137-173l-357-179c-80-40-140-54-185-54z m0 750c-22 0-40-6-50-16-31-30-19-108 31-208l37-72c13-28 13-68 0-95l-37-73c-50-100-62-177-31-207 30-31 108-18 208 32l356 178c66 32 103 75 103 117 0 43-38 85-103 118l-357 178c-63 32-118 48-157 48z m227-375h-225c-17 0-32 14-32 31 0 17 15 31 32 31h225c17 0 31-14 31-31 0-17-14-31-31-31z" horiz-adv-x="1000" />

<glyph glyph-name="send-2" unicode="&#xee51;" d="M593-51c-50 0-119 34-174 200l-30 90-90 30c-165 55-200 124-200 174 0 48 35 118 200 174l354 118c88 29 162 20 207-25 46-45 54-119 25-207l-118-354c-56-166-125-200-174-200z m-275 608c-115-39-157-84-157-114 0-30 42-76 157-115l105-35c10-3 17-10 20-19l35-105c38-116 85-157 115-157 30 0 75 41 114 157l118 354c21 64 18 116-9 143-28 27-80 31-144 9l-354-118z m103-307c-8 0-16 3-22 9-12 12-12 32 0 44l149 150c12 12 32 12 45 0 12-12 12-32 0-44l-150-150c-5-6-14-9-22-9z" horiz-adv-x="1000" />

<glyph glyph-name="setting-2" unicode="&#xee55;" d="M500 194c-86 0-156 70-156 156 0 86 70 156 156 156 86 0 156-70 156-156 0-86-70-156-156-156z m0 250c-52 0-94-42-94-94 0-52 42-94 94-94 52 0 94 42 94 94 0 52-42 94-94 94z m134-519c-9 0-18 2-26 4-26 7-48 23-62 46l-5 8c-24 43-58 43-83 0l-4-8c-14-23-36-40-61-46-27-7-54-4-77 10l-71 41c-26 15-44 39-52 68-8 28-4 58 11 83 12 22 15 41 8 53-7 12-25 19-49 19-61 0-111 50-111 110v74c0 61 50 110 111 110 24 0 42 7 49 19 7 12 4 32-8 53-15 25-19 55-11 84 7 28 26 52 52 67l72 41c47 28 109 12 137-36l5-9c25-42 59-42 83 0l5 8c28 49 90 65 138 36l71-41c26-14 44-38 52-67 7-29 4-58-11-84-12-21-15-40-8-52 7-12 25-19 49-19 61 0 111-50 111-111v-73c0-61-50-110-111-110-24 0-42-8-49-20-7-12-4-31 8-52 15-26 19-56 11-84-8-29-26-52-52-67l-72-41c-16-9-33-14-50-14z m-134 155c37 0 72-24 95-65l5-8c5-9 13-15 23-17 10-3 20-2 29 3l72 42c11 6 19 17 22 29 4 13 2 26-4 36-24 41-27 83-9 115 19 33 57 51 104 51 27 0 48 21 48 48v73c0 26-21 48-48 48-47 0-85 18-104 50-18 33-15 75 9 115 6 11 8 24 4 37-3 12-11 22-22 29l-72 41c-18 11-42 5-52-14l-5-8c-24-41-58-64-95-64-37 0-72 23-96 64l-4 9c-11 17-34 24-52 13l-72-42c-11-6-19-16-23-29-3-12-1-25 5-36 24-41 27-83 8-115-18-32-56-50-103-50-27 0-48-22-48-48v-74c0-26 21-48 48-48 47 0 85-18 103-50 19-32 16-74-8-115-6-11-8-24-5-36 4-13 12-23 22-29l73-42c8-5 19-6 28-4 10 3 19 9 24 18l5 8c23 41 58 65 95 65z" horiz-adv-x="1000" />

<glyph glyph-name="setting-4" unicode="&#xee57;" d="M917 548h-250c-17 0-32 14-32 31 0 17 15 31 32 31h250c17 0 31-14 31-31 0-17-14-31-31-31z m-667 0h-167c-17 0-31 14-31 31 0 17 14 31 31 31h167c17 0 31-14 31-31 0-17-14-31-31-31z m167-146c-98 0-177 80-177 177 0 98 79 177 177 177 97 0 177-79 177-177 0-97-80-177-177-177z m0 292c-64 0-115-51-115-115 0-63 51-114 115-114 63 0 114 51 114 114 0 64-51 115-114 115z m500-604h-167c-17 0-31 14-31 31 0 17 14 31 31 31h167c17 0 31-14 31-31 0-17-14-31-31-31z m-584 0h-250c-17 0-31 14-31 31 0 17 14 31 31 31h250c17 0 32-14 32-31 0-17-15-31-32-31z m250-146c-97 0-177 79-177 177 0 97 80 177 177 177 98 0 177-80 177-177 0-98-79-177-177-177z m0 291c-63 0-114-51-114-114 0-63 51-115 114-115 64 0 115 52 115 115 0 63-51 114-115 114z" horiz-adv-x="1000" />

<glyph glyph-name="setting-5" unicode="&#xee58;" d="M792-98c-17 0-32 14-32 31v459c0 17 15 31 32 31 17 0 31-14 31-31v-459c0-17-14-31-31-31z m0 625c-17 0-32 14-32 31v209c0 17 15 31 32 31 17 0 31-14 31-31v-209c0-17-14-31-31-31z m-292-625c-17 0-31 14-31 31v209c0 17 14 31 31 31 17 0 31-14 31-31v-209c0-17-14-31-31-31z m0 375c-17 0-31 14-31 31v459c0 17 14 31 31 31 17 0 31-14 31-31v-459c0-17-14-31-31-31z m-292-375c-17 0-31 14-31 31v459c0 17 14 31 31 31 17 0 32-14 32-31v-459c0-17-15-31-32-31z m0 625c-17 0-31 14-31 31v209c0 17 14 31 31 31 17 0 32-14 32-31v-209c0-17-15-31-32-31z m84-167h-167c-17 0-31 15-31 32 0 17 14 31 31 31h167c17 0 31-14 31-31 0-17-14-32-31-32z m583 0h-167c-17 0-31 15-31 32 0 17 14 31 31 31h167c17 0 31-14 31-31 0-17-14-32-31-32z m-292-83h-166c-17 0-32 14-32 31 0 17 15 32 32 32h166c17 0 32-15 32-32 0-17-15-31-32-31z" horiz-adv-x="1000" />

<glyph glyph-name="shop" unicode="&#xee66;" d="M613-98h-225c-206 0-294 88-294 293v188c0 17 14 31 31 31 18 0 32-14 32-31v-188c0-170 60-230 231-230h224c171 0 231 60 231 230v188c0 17 14 31 31 31 17 0 31-14 31-31v-188c1-205-87-293-292-293z m-113 417c-46 0-87 18-117 51-30 33-43 75-39 121l28 279c2 15 15 28 31 28h195c16 0 30-12 31-28l28-279c5-46-9-88-39-121-30-33-72-51-118-51z m-69 416l-25-250c-3-28 6-54 23-73 36-39 106-39 142 0 17 19 26 46 23 73l-25 250h-138z m332-416c-85 0-160 68-169 152l-29 292c-1 9 2 18 8 25 6 6 14 10 23 10h127c123 0 180-51 197-177l12-116c5-49-10-96-42-131-32-36-77-55-127-55z m-132 416l26-257c5-53 53-97 106-97 32 0 60 12 80 34 20 23 30 52 27 84l-12 114c-13 95-43 122-135 122h-92z m-396-416c-50 0-95 19-127 55-32 35-47 82-42 131l12 115c17 127 74 178 197 178h127c8 0 17-4 23-10 6-7 9-16 8-25l-29-292c-9-84-84-152-169-152z m40 416c-92 0-122-27-135-122l-12-114c-3-32 7-61 27-84 20-22 48-34 80-34 53 0 101 44 106 97l26 257h-92z m329-833h-208c-17 0-31 14-31 31v105c0 87 48 135 135 135 88 0 135-48 135-135v-105c0-17-14-31-31-31z m-177 63h146v73c0 52-20 72-73 72-52 0-73-20-73-72v-73z" horiz-adv-x="1000" />

<glyph glyph-name="star" unicode="&#xee89;" d="M736-95c-22 0-51 7-86 28l-125 74c-12 8-37 8-50 0l-125-74c-74-43-117-26-137-12-19 14-49 51-29 134l29 128c4 13-3 36-13 46l-103 104c-52 51-48 95-41 117 7 22 30 60 102 72l132 22c13 2 31 16 36 27l74 147c33 67 77 77 100 77 23 0 67-10 100-77l73-147c6-11 24-24 37-26l133-22c72-13 94-51 101-73 6-21 11-65-41-117l-103-104c-10-10-16-32-13-46l29-128c19-83-10-120-29-134-11-7-27-16-51-16z m-236 170c20 0 41-5 57-14l125-74c36-22 59-22 68-15 8 6 15 28 5 69l-29 128c-8 34 5 79 30 104l103 104c21 20 30 40 26 54-5 14-24 25-52 29l-133 23c-32 5-67 31-82 60l-73 147c-14 26-30 42-45 42-15 0-31-16-44-42l-74-147c-14-29-49-55-82-60l-132-23c-28-4-48-15-52-29-5-14 5-34 25-54l104-104c25-25 38-70 30-104l-30-128c-10-41-3-63 6-69 9-7 31-6 68 15l124 74c16 9 37 14 57 14z" horiz-adv-x="1000" />

<glyph glyph-name="task-square" unicode="&#xee9c;" d="M734 449h-219c-17 0-31 14-31 31 0 18 14 32 31 32h219c17 0 31-14 31-32 0-17-13-31-31-31z m-437-31c-8 0-16 2-22 9l-32 31c-12 12-12 32 0 44 12 12 32 12 45 0l9-9 71 72c12 12 32 12 45 0 12-12 12-32 0-45l-94-93c-6-6-14-9-22-9z m437-260h-219c-17 0-31 14-31 31 0 17 14 31 31 31h219c17 0 31-14 31-31 0-17-13-31-31-31z m-437-32c-8 0-16 3-22 9l-32 31c-12 12-12 32 0 44 12 13 32 13 45 0l9-9 71 72c12 12 32 12 45 0 12-12 12-32 0-44l-94-94c-6-6-14-9-22-9z m328-224h-250c-226 0-323 97-323 323v250c0 226 97 323 323 323h250c226 0 323-97 323-323v-250c0-226-97-323-323-323z m-250 833c-192 0-260-68-260-260v-250c0-192 68-260 260-260h250c192 0 260 68 260 260v250c0 192-68 260-260 260h-250z" horiz-adv-x="1000" />

<glyph glyph-name="task" unicode="&#xee9d;" d="M875 6h-417c-17 0-31 14-31 32 0 17 14 31 31 31h417c17 0 31-14 31-31 0-18-14-32-31-32z m0 292h-417c-17 0-31 14-31 31 0 17 14 31 31 31h417c17 0 31-14 31-31 0-17-14-31-31-31z m0 292h-417c-17 0-31 14-31 31 0 17 14 31 31 31h417c17 0 31-14 31-31 0-17-14-31-31-31z m-708-42c-8 0-16 3-22 9l-42 42c-12 12-12 32 0 44 12 12 32 12 44 0l20-20 103 103c12 12 32 12 44 0 12-12 12-32 0-44l-125-125c-6-6-14-9-22-9z m0-292c-8 0-16 3-22 9l-42 42c-12 12-12 32 0 44 12 12 32 12 44 0l20-19 103 103c12 12 32 12 44 0 12-12 12-32 0-45l-125-125c-6-6-14-9-22-9z m0-291c-8 0-16 2-22 9l-42 41c-12 13-12 33 0 45 12 12 32 12 44 0l20-20 103 103c12 12 32 12 44 0 12-12 12-32 0-44l-125-125c-6-7-14-9-22-9z" horiz-adv-x="1000" />

<glyph glyph-name="textalign-left" unicode="&#xeea8;" d="M875 631h-750c-17 0-31 14-31 32 0 17 14 31 31 31h750c17 0 31-14 31-31 0-18-14-32-31-32z m-355-208h-395c-17 0-31 14-31 31 0 17 14 31 31 31h395c17 0 31-14 31-31 0-17-14-31-31-31z m355-208h-750c-17 0-31 14-31 31 0 17 14 31 31 31h750c17 0 31-14 31-31 0-17-14-31-31-31z m-355-209h-395c-17 0-31 14-31 32 0 17 14 31 31 31h395c17 0 31-14 31-31 0-18-14-32-31-32z" horiz-adv-x="1000" />

<glyph glyph-name="tick-circle" unicode="&#xeeaa;" d="M500-98c-247 0-448 201-448 448 0 247 201 448 448 448 247 0 448-201 448-448 0-247-201-448-448-448z m0 833c-212 0-385-172-385-385 0-212 173-385 385-385 213 0 385 173 385 385 0 213-172 385-385 385z m-59-534c-8 0-16 3-22 9l-118 118c-12 12-12 32 0 44 12 12 32 12 44 0l96-96 214 214c12 13 32 13 44 0 12-12 12-32 0-44l-236-236c-6-6-14-9-22-9z" horiz-adv-x="1000" />

<glyph glyph-name="timer-1" unicode="&#xeeb1;" d="M500-98c-218 0-396 178-396 396 0 218 178 396 396 396 218 0 396-178 396-396 0-218-178-396-396-396z m0 729c-184 0-333-149-333-333 0-184 149-333 333-333 184 0 333 149 333 333 0 184-149 333-333 333z m0-354c-17 0-31 14-31 31v209c0 17 14 31 31 31 17 0 31-14 31-31v-209c0-17-14-31-31-31z m125 458h-250c-17 0-31 15-31 32 0 17 14 31 31 31h250c17 0 31-14 31-31 0-17-14-32-31-32z" horiz-adv-x="1000" />

<glyph glyph-name="timer-pause" unicode="&#xeeb2;" d="M500-98c-218 0-396 178-396 396 0 218 178 396 396 396 218 0 396-178 396-396 0-17-14-31-31-31-17 0-32 14-32 31 0 184-149 333-333 333-184 0-333-149-333-333 0-184 149-333 333-333 17 0 31-15 31-32 0-17-14-31-31-31z m0 375c-17 0-31 14-31 31v209c0 17 14 31 31 31 17 0 31-14 31-31v-209c0-17-14-31-31-31z m125 458h-250c-17 0-31 15-31 32 0 17 14 31 31 31h250c17 0 31-14 31-31 0-17-14-32-31-32z m167-791c-17 0-32 14-32 31v167c0 17 15 31 32 31 17 0 31-14 31-31v-167c0-17-14-31-31-31z m-125 0c-17 0-32 14-32 31v167c0 17 15 31 32 31 17 0 31-14 31-31v-167c0-17-14-31-31-31z" horiz-adv-x="1000" />

<glyph glyph-name="timer-start" unicode="&#xeeb3;" d="M500 277c-17 0-31 14-31 31v209c0 17 14 31 31 31 17 0 31-14 31-31v-209c0-17-14-31-31-31z m0-375c-218 0-396 178-396 396 0 218 178 396 396 396 218 0 396-178 396-396 0-17-14-31-31-31-17 0-32 14-32 31 0 184-149 333-333 333-184 0-333-149-333-333 0-184 149-333 333-333 17 0 31-15 31-32 0-17-14-31-31-31z m125 833h-250c-17 0-31 15-31 32 0 17 14 31 31 31h250c17 0 31-14 31-31 0-17-14-32-31-32z m48-803c-15 0-28 4-40 11-28 16-43 48-43 88v96c0 40 15 72 43 88 27 16 63 13 97-6l84-49c34-20 54-49 54-81 0-31-20-61-54-81l-84-48c-19-12-38-18-57-18z m0 231c-3 0-6 0-9-2-7-4-12-17-12-33v-97c0-16 5-29 12-34 8-4 21-2 35 7l84 48c14 8 23 19 23 27 0 9-9 19-23 27l-84 49c-9 5-19 8-26 8z" horiz-adv-x="1000" />

<glyph glyph-name="trash" unicode="&#xeebc;" d="M875 570c-1 0-2 0-3 0-221 22-441 30-659 8l-85-8c-17-2-33 10-34 28-2 17 11 32 28 34l85 8c221 23 446 14 671-8 17-2 30-17 28-34-1-16-15-28-31-28z m-521 42c-1 0-3 0-5 0-17 3-29 19-26 36l10 55c6 40 15 95 112 95h110c97 0 106-58 113-96l9-54c3-17-9-33-26-36-17-3-33 9-36 26l-9 54c-6 36-7 43-51 43h-109c-44 0-45-6-51-43l-10-54c-2-15-16-26-31-26z m280-710h-268c-145 0-151 80-156 146l-27 419c-1 17 12 32 30 33 17 1 32-12 33-29l27-419c5-64 6-87 93-87h268c87 0 89 23 93 87l27 419c1 17 16 30 34 29 17-1 30-15 29-33l-27-419c-5-66-11-146-156-146z m-65 229h-139c-17 0-31 14-31 32 0 17 14 31 31 31h139c17 0 31-14 31-31 0-18-14-32-31-32z m35 167h-208c-17 0-31 14-31 31 0 17 14 31 31 31h208c17 0 31-14 31-31 0-17-14-31-31-31z" horiz-adv-x="1000" />

<glyph glyph-name="user" unicode="&#xeed4;" d="M500 319c-132 0-240 107-240 239 0 132 108 240 240 240 132 0 240-108 240-240 0-132-108-239-240-239z m0 416c-97 0-177-79-177-177 0-97 80-177 177-177 98 0 177 80 177 177 0 98-79 177-177 177z m358-833c-17 0-31 14-31 31 0 144-147 261-327 261-180 0-327-117-327-261 0-17-14-31-31-31-17 0-31 14-31 31 0 178 174 323 389 323 215 0 389-145 389-323 0-17-14-31-31-31z" horiz-adv-x="1000" />

<glyph glyph-name="warning-2" unicode="&#xeef6;" d="M500 277c-17 0-31 14-31 31v219c0 17 14 31 31 31 17 0 31-14 31-31v-219c0-17-14-31-31-31z m0-146c-11 0-22 4-30 12-3 5-6 9-9 14-2 5-3 11-3 16 0 11 5 22 12 30 16 15 44 15 60 0 7-8 12-19 12-30 0-5-2-11-4-16-2-5-5-9-8-14-8-8-19-12-30-12z m0-229c-28 0-56 7-81 22l-248 143c-50 29-81 83-81 141v285c0 57 31 111 81 140l248 143c50 29 112 29 162 0l248-143c50-29 81-83 81-140v-285c0-58-31-112-81-141l-248-143c-25-15-53-22-81-22z m0 833c-17 0-35-4-50-13l-247-143c-31-18-50-51-50-86v-285c0-36 19-69 50-87l247-143c31-18 69-18 100 0l247 143c31 18 50 51 50 87v285c0 35-19 68-50 86l-247 143c-15 9-33 13-50 13z" horiz-adv-x="1000" />

<glyph glyph-name="tick" unicode="&#xef00;" d="M447-98c-25 0-48 10-66 28l-354 354c-36 36-36 96 0 132 37 37 97 37 133 0l287-287 643 642c36 37 96 37 132 0 37-36 37-96 0-132l-708-709c-18-18-42-28-67-28z" horiz-adv-x="1250" />

<glyph glyph-name="twitter" unicode="&#xf099;" d="M904 622q-37-54-90-93 0-8 0-23 0-73-21-145t-64-139-103-117-144-82-181-30q-151 0-276 81 19-2 43-2 126 0 224 77-59 1-105 36t-64 89q19-3 34-3 24 0 48 6-63 13-104 62t-41 115v2q38-21 82-23-37 25-59 64t-22 86q0 49 25 91 68-83 164-133t208-55q-5 21-5 41 0 75 53 127t127 53q79 0 132-57 61 12 115 44-21-64-80-100 52 6 104 28z" horiz-adv-x="928.6" />

<glyph glyph-name="food" unicode="&#xf0f5;" d="M357 814v-357q0-34-20-62t-51-39v-435q0-29-21-50t-51-21h-71q-29 0-50 21t-22 50v435q-31 11-51 39t-20 62v357q0 15 11 25t25 11 25-11 10-25v-232q0-14 11-25t25-11 25 11 11 25v232q0 15 11 25t25 11 25-11 10-25v-232q0-14 11-25t25-11 25 11 11 25v232q0 15 10 25t25 11 26-11 10-25z m429 0v-893q0-29-21-50t-51-21h-71q-29 0-50 21t-22 50v286h-125q-7 0-12 5t-5 13v446q0 74 52 127t126 52h143q15 0 25-11t11-25z" horiz-adv-x="785.7" />

<glyph glyph-name="thumbs-up-alt" unicode="&#xf164;" d="M143 100q0 15-11 25t-25 11q-15 0-25-11t-11-25q0-15 11-25t25-11q15 0 25 11t11 25z m89 286v-357q0-15-10-25t-26-11h-160q-15 0-25 11t-11 25v357q0 14 11 25t25 10h160q15 0 26-10t10-25z m661 0q0-48-31-83 9-25 9-43 1-42-24-76 9-31 0-66-9-31-31-52 5-62-27-101-36-43-110-44h-72q-37 0-80 9t-68 16-67 22q-69 24-88 25-15 0-25 11t-11 25v357q0 14 10 25t24 11q13 1 42 33t57 67q38 49 56 67 10 10 17 27t10 27 8 34q4 22 7 34t11 29 19 28q10 11 25 11 25 0 46-6t33-15 22-22 14-25 7-28 2-25 1-22q0-21-6-43t-10-33-16-31q-1-4-5-10t-6-13-5-13h155q43 0 75-32t32-75z" horiz-adv-x="928.6" />

<glyph glyph-name="apple" unicode="&#xf179;" d="M777 172q-21-70-68-139-72-110-144-110-27 0-78 18-48 18-84 18-34 0-79-19-45-19-74-19-85 0-168 145-82 146-82 281 0 127 63 208 63 81 159 81 40 0 98-17 58-17 77-17 25 0 80 19 57 19 97 19 66 0 119-36 29-20 58-56-44-37-64-66-36-52-36-115 0-69 38-125t88-70z m-209 655q0-34-17-76-16-42-52-77-30-30-60-40-20-7-58-10 2 83 44 143 41 60 139 83 1-2 2-6t1-6q0-2 0-6t1-5z" horiz-adv-x="785.7" />

<glyph glyph-name="user-circle" unicode="&#xf2bd;" d="M850 103q-12 86-49 144t-103 66q-37-42-89-65t-109-23-109 23-89 65q-66-9-103-66t-49-144q59-84 151-133t199-49 199 49 151 133z m-136 390q0 89-62 151t-152 63-151-63-63-151 63-152 151-62 152 62 62 152z m286-143q0-102-40-194t-106-160-159-106-195-40q-102 0-194 40t-160 106-106 160-40 194 40 194 106 160 160 106 194 40 194-40 160-106 106-160 40-194z" horiz-adv-x="1000" />

<glyph glyph-name="user-circle-o" unicode="&#xf2be;" d="M500 850q102 0 194-40t160-106 106-160 40-194q0-101-39-194t-107-159-159-107-195-40-195 40-159 106-106 160-40 194 40 194 106 160 160 106 194 40z m345-754q84 115 84 254 0 87-34 166t-92 137-137 92-166 34-166-34-137-92-91-137-35-166q0-139 84-254 36 183 170 183 73-72 175-72t175 72q134 0 170-183z m-131 361q0 89-62 152t-152 62-151-62-63-152 63-151 151-63 152 63 62 151z" horiz-adv-x="1000" />

<glyph glyph-name="linkedin-squared" unicode="&#xf30c;" d="M132 61h129v387h-129v-387z m138 507q-1 29-21 48t-51 19-53-19-21-48q0-29 20-48t52-19h0q33 0 53 19t21 48z m326-507h129v222q0 86-41 130t-107 44q-76 0-117-65h1v56h-129q2-37 0-387h129v217q0 21 4 31 8 19 25 33t41 14q65 0 65-88v-207z m261 557v-536q0-66-47-113t-114-48h-535q-67 0-114 48t-47 113v536q0 66 47 113t114 48h535q67 0 114-48t47-113z" horiz-adv-x="857.1" />
</font>
</defs>
</svg>
